<svg xmlns="http://www.w3.org/2000/svg" width="35" height="35" viewBox="0 0 35 35">
  <g id="Grupo_474" data-name="Grupo 474" transform="translate(-1759 -40)">
    <circle id="Elipse_35" data-name="Elipse 35" cx="17.5" cy="17.5" r="17.5" transform="translate(1759 40)" fill="#fff"/>
    <g id="Grupo_473" data-name="Grupo 473" transform="translate(1767.08 48.08)">
      <g id="Grupo_147" data-name="Grupo 147" transform="translate(0 0)">
        <g id="Grupo_144" data-name="Grupo 144">
          <path id="Trazado_234" data-name="Trazado 234" d="M93.979,552.856H85.856a5.373,5.373,0,0,1-5.367-5.367v-8.123A5.373,5.373,0,0,1,85.856,534h8.123a5.373,5.373,0,0,1,5.367,5.367v8.123A5.373,5.373,0,0,1,93.979,552.856Zm-8.123-17.241a3.755,3.755,0,0,0-3.751,3.751v8.123a3.755,3.755,0,0,0,3.751,3.751h8.123a3.755,3.755,0,0,0,3.751-3.751v-8.123a3.755,3.755,0,0,0-3.751-3.751Z" transform="translate(-80.489 -533.999)" fill="#ff4700"/>
        </g>
        <g id="Grupo_145" data-name="Grupo 145" transform="translate(4.6 4.6)">
          <path id="Trazado_235" data-name="Trazado 235" d="M119.548,577.886a4.828,4.828,0,1,1,4.828-4.828A4.834,4.834,0,0,1,119.548,577.886Zm0-8.04a3.212,3.212,0,1,0,3.212,3.212A3.216,3.216,0,0,0,119.548,569.846Z" transform="translate(-114.72 -568.229)" fill="#ff4700"/>
        </g>
        <g id="Grupo_146" data-name="Grupo 146" transform="translate(13.303 3.163)">
          <path id="Trazado_236" data-name="Trazado 236" d="M181.8,558.7a1.161,1.161,0,1,1-1.16-1.161A1.16,1.16,0,0,1,181.8,558.7Z" transform="translate(-179.481 -557.538)" fill="#ff4700"/>
        </g>
      </g>
    </g>
  </g>
</svg>
