<?xml version="1.0" encoding="utf-8"?>
<!-- Generator: Adobe Illustrator 26.0.3, SVG Export Plug-In . SVG Version: 6.00 Build 0)  -->
<svg version="1.1" id="Capa_1" xmlns="http://www.w3.org/2000/svg" xmlns:xlink="http://www.w3.org/1999/xlink" x="0px" y="0px"
	 viewBox="0 0 607.9 393.4" style="enable-background:new 0 0 607.9 393.4;" xml:space="preserve">
<style type="text/css">
	.st0{enable-background:new    ;}
	.st1{fill:#FFFFFF;}
	.st2{fill:none;stroke:#FFFFFF;stroke-width:0.5003;stroke-miterlimit:4.0021;}
</style>
<g class="st0">
	<path class="st1" d="M29.2,205.6c-1.5-0.3-2.4-1.2-2.5-2.8c-0.1-1,0.1-1.9,0.2-2.9c1.7-14.7,5.8-28.8,12-42.3
		c5.9-12.5,13.2-24.4,21.9-35.3c2.3-2.8,4.9-5.5,7.5-8.4c0.6-0.5,1.2-1.1,1.9-1.7c0.2,0,0.7,0.1,0.8,0.2c0.2,0,0.2,0.5,0.2,0.5
		c-0.8,1.4-1.7,2.6-2.5,3.8c0,0.2-0.1,0.2-0.1,0.2c-2.1-0.4-2.8,1.3-3.8,2.5c-18.4,22.1-31.3,46.9-36,75.6c-0.3,1.8-0.6,3.6-0.7,5.4
		c-0.1,1-0.1,1.9,0,2.9c0.1,0.6,0.5,1.2,1.2,1.2c1.3,0.2,2.8,0.2,4-0.1c3.5-0.7,6.9-1.5,10.4-2.5c9.1-2.2,18.2-4.7,27.3-6.7
		c3.9-0.9,7.9-1.8,11.9-1.6c0.5,0.1,0.8,0.2,1.3,0.2l0.1,0.6c-1.3,0-2.6,0.1-3.7,0.1c-4.5,0.3-8.7,1.4-13,2.3
		c-10.2,2.7-20.5,5.4-30.7,7.9c-1.9,0.5-3.8,0.7-5.7,0.9C30.4,205.6,29.8,205.7,29.2,205.6z"/>
	<path class="st1" d="M81.8,188.9c-3.9,0.1-5.3-4.6-1.2-8.7c1.5-2.1,3.5-3.9,5.9-4.8c0.6-0.2,1.4-0.3,2.1-0.4
		c1.3,0.2,1.9,1.4,1.1,2.5c-0.6,0.7-1.5,1.4-2.2,2.2c-1.9,1.5-4.2,2.7-6.4,3.6c-0.8,0.2-1.4,0.6-1.6,1.5c-0.5,1.8,0.3,3,2.3,3.3
		c1.9,0.1,4.6-0.6,6.3-1.5c2-1,3.2-1.9,5-3.3l6.7-5.2c1.9-1.7,3.4-1,1.6,0.2c-3.4,2.8-5.8,4.6-9.4,7.3c-2.2,1.7-4.7,2.9-7.5,3.4
		C83.6,188.9,82.6,189,81.8,188.9z M86.5,178.8c0.9-0.7,1.8-1.2,2-2.5c-1.2-0.5-2.1,0.4-3,0.8c-1.8,1.2-2.8,2.2-3.7,4.3
		C83.7,180.8,85.2,179.7,86.5,178.8z"/>
	<path class="st1" d="M147.4,143.5c0,0.3,0.1,0.8,0,1.1c-0.8,1.2-2.7,2.1-4.9,2.6c0.6-0.7,0.9-1.1,1.3-1.4c0.4-0.4,0.9-0.6,1.2-0.9
		c-0.1-0.8-0.4-0.8-0.9-0.7l-5.1,0.5c-4.9,0.7-9.7,1.5-14.6,2c-1.4,0.3-2.5,0.9-3.3,2.1l-14.5,22.6c-0.7,0.9-1.4,1.6-2,2.5
		c-0.6,0.7-1.1,1.6-1.5,2.4c-3.4,7.6-6.3,15.5-8.8,23.3c-2.5,8-4.9,16.1-7.4,24.1c-0.1,0.5-0.2,0.8-0.6,1.7
		c-0.4-0.4-0.7-0.7-0.7-0.9c0.1-0.8,0.3-1.6,0.5-2.5c3.2-11,6.6-21.8,10.4-32.6c4.9-13.1,11.1-25.6,17.7-37.9l1.2-2.5
		c0.2,0,0-0.2-0.1-0.5c-3.2,0-6.5,0.8-9.7,1.5c-3.3,0.7-6.6,1.2-10.1,2l-9.6,2.5c-3,0.8-6.1,2.1-9.2,3.1c0-1.3,0.7-1.4,1-1.6
		c3.6-1.2,7-2.5,10.4-3.4c8.6-2.4,17.4-4.3,26.3-5.5c1.8-0.2,2.8-1.1,3.8-2.5c1.9-3.1,4-6.1,6.3-8.9c0.8-1.2,2.2-2.2,3.5-3.1
		c0.1-0.2,0.9-0.3,1.1-0.1c0.2,0.3,0.6,0.9,0.5,1.4c-0.2,0.8-0.8,1.7-1.2,2.5l-4.1,7c-0.3,0.5-0.5,1-0.8,1.5
		c0.7,0.7,1.5,0.5,2.3,0.2c4.9-0.5,9.8-1.4,14.9-2.1l3.5-0.4C145.2,142.9,146.3,142.8,147.4,143.5z M119.4,149
		c0.3-0.2,0.4-0.7,0.5-1.2c-1.5-0.3-2.6,0.1-3.2,1.5c-2.4,4.4-4.7,9-7.1,13.5c0,0-0.9,2.2-1.1,2.2c0.2,0.1,0.2,0.3,0.4,0.3
		c1.1-1.7,1-1.4,1.7-2.3L119.4,149L119.4,149z M122.1,144.9c1.8-3.1,3.7-6.2,5.4-9.4c0.1-0.2,0.1-0.5,0.1-0.8
		c-2.8,2.1-7.1,7.8-8.5,11.4C120.5,146.5,121.4,146.1,122.1,144.9z"/>
	<path class="st1" d="M108.7,138.3c-0.2-0.1-0.2-0.5-0.2-0.8c-0.2-0.6-0.5-1.2-0.5-1.7c-0.1-0.8,0.5-1.5,1-1.6
		c0.8,0.1,1.2,0.7,1.3,1.3c0.2,2.1-0.2,4-2.5,5.1C108,139.9,108.3,139.1,108.7,138.3z"/>
	<path class="st1" d="M114.5,199.3c0.8-1.5,1.8-2.9,2.9-4.2c2.3-2.3,4.8-4.5,7.3-6.7c1.6-1.3,3.3-2.6,4.9-4.1
		c0.1-3.2-0.5-6.2-1.3-9.2c-0.3-1.6-0.8-3.1-1.1-4.7c-0.3-1.7-0.2-3.4,1.1-4.8l1-0.8c0.5-0.2,1.5,0.3,1.5,0.8
		c0.3,1.1,0.1,2.1-0.8,2.8c-1-0.4-0.3-1.1-0.6-1.5l-0.5,0.1c-1,1.6-0.8,3.1-0.5,4.7c0.3,1.3,0.7,2.3,1,3.6l1.6,7.4
		c0.5-0.2,1.1-0.3,1.5-0.6c3.7-3,7.4-5.9,11.2-8.7c0.4-0.5,1-0.8,1.7-1.1c0.5,0.6,0.3,0.9,0,1.3c-0.7,0.6-1.6,1.3-2.4,2
		c-4,3-7.9,6.1-11.9,9.3l-0.4,4.2c-0.2,2.6-0.9,5.2-1.8,7.8c-0.9,2-2,3.8-3.5,5.4c-2,2.1-4.5,3.2-7.4,3
		C114.6,205.1,112.9,202.5,114.5,199.3z M126.5,198.8c1.8-3.1,2.7-6.6,3.1-10l0.1-2.3c-0.6,0.2-1,0.1-1.1,0.3
		c-3.7,3-7.3,5.8-10.3,9.1c-0.9,1.1-1.7,2-2.2,3.1c-0.6,0.7-0.8,1.7-0.8,2.7c0,1.1,0.7,2,1.9,2.4c1.1,0.2,2.3,0.2,3.4,0
		C123.4,203.4,125.1,201.2,126.5,198.8z"/>
	<path class="st1" d="M174.5,193c0.8-1.5,1.8-2.9,2.9-4.2c2.3-2.3,4.8-4.5,7.3-6.7c1.6-1.3,3.3-2.6,4.9-4.1c0.1-3.2-0.5-6.2-1.3-9.2
		c-0.3-1.6-0.8-3.1-1.1-4.7c-0.3-1.7-0.2-3.4,1.1-4.8l1-0.8c0.5-0.2,1.5,0.3,1.5,0.8c0.3,1.1,0.1,2.1-0.8,2.8
		c-1-0.4-0.3-1.1-0.6-1.5l-0.5,0.1c-1,1.6-0.8,3.1-0.5,4.7c0.3,1.3,0.7,2.3,1,3.6l1.6,7.4c0.5-0.2,1.1-0.3,1.5-0.6
		c3.7-3,7.4-5.9,11.2-8.7c0.4-0.5,1-0.8,1.6-1.1c0.5,0.6,0.3,0.9,0,1.3c-0.7,0.6-1.6,1.3-2.4,2c-4,3-7.9,6.1-11.9,9.3l-0.4,4.2
		c-0.2,2.6-0.9,5.2-1.8,7.8c-0.9,2-2,3.8-3.5,5.4c-2,2.1-4.5,3.2-7.4,3C174.6,198.8,172.9,196.2,174.5,193z M186.5,192.5
		c1.8-3.1,2.7-6.6,3.1-10l0.1-2.3c-0.6,0.2-1,0.1-1.1,0.3c-3.7,3-7.3,5.8-10.3,9.1c-0.9,1.1-1.7,2-2.2,3.1c-0.6,0.7-0.8,1.7-0.8,2.7
		c0,1.1,0.7,2,1.9,2.4c1.1,0.2,2.3,0.2,3.4,0C183.4,197,185.1,194.9,186.5,192.5z"/>
	<path class="st1" d="M251,132.6c0,0.3,0.1,0.8,0,1.1c-0.8,1.2-2.7,2.1-4.9,2.6c0.6-0.7,0.9-1.1,1.3-1.4c0.4-0.4,0.9-0.6,1.2-0.9
		c-0.1-0.8-0.4-0.8-0.9-0.7l-5.1,0.5c-4.9,0.7-9.7,1.5-14.6,2c-1.4,0.3-2.5,0.9-3.3,2.1l-14.5,22.6c-0.7,0.9-1.4,1.6-2,2.5
		c-0.6,0.7-1.1,1.6-1.5,2.4c-3.4,7.6-6.3,15.5-8.8,23.3c-2.5,8-4.9,16.1-7.4,24.1c-0.1,0.5-0.2,0.8-0.6,1.7
		c-0.4-0.4-0.7-0.7-0.7-0.9c0.1-0.8,0.3-1.6,0.5-2.5c3.2-11,6.6-21.8,10.4-32.6c4.9-13.1,11.1-25.6,17.7-37.9l1.2-2.5
		c0.2,0,0-0.2-0.1-0.5c-3.2,0-6.5,0.8-9.7,1.5c-3.3,0.7-6.6,1.2-10.1,2l-9.6,2.5c-3,0.8-6.1,2.1-9.2,3.1c0-1.3,0.7-1.4,1-1.6
		c3.6-1.2,7-2.5,10.4-3.4c8.6-2.4,17.4-4.3,26.3-5.5c1.8-0.2,2.8-1.1,3.8-2.5c1.9-3.1,4-6.1,6.3-8.9c0.8-1.2,2.2-2.2,3.5-3.1
		c0.1-0.2,0.9-0.3,1.1-0.1c0.2,0.3,0.6,0.9,0.5,1.4c-0.2,0.8-0.8,1.7-1.2,2.5l-4.1,7c-0.3,0.5-0.5,1-0.8,1.5
		c0.7,0.7,1.5,0.5,2.3,0.2c4.9-0.5,9.8-1.4,14.9-2.1l3.5-0.4C248.8,132,250,131.9,251,132.6z M223.1,138.1c0.3-0.2,0.4-0.7,0.5-1.2
		c-1.5-0.3-2.6,0.1-3.2,1.5c-2.4,4.4-4.7,9-7.1,13.5c0,0-0.9,2.2-1.1,2.2c0.2,0.1,0.2,0.3,0.4,0.3c1.1-1.7,1-1.4,1.7-2.3
		L223.1,138.1L223.1,138.1z M225.7,134c1.8-3.1,3.7-6.2,5.4-9.4c0.1-0.2,0.1-0.5,0.1-0.8c-2.8,2.1-7.1,7.8-8.5,11.4
		C224.1,135.6,225,135.2,225.7,134z"/>
	<path class="st1" d="M209.5,173.8c0.2-0.8,0.5-1.7,0.9-2.3c2.5-4.1,6-7.6,10.2-9.8c1.1-0.4,2.3-0.9,3.4-1c1.8-0.2,2.9,1.6,2.3,3.3
		l-1.9,4.7c-0.4,1.2-0.7,2.3,0.4,3.3c1.6,1.3,7.4-1.7,14.4-5.9c2.1-1.3,4.1-2.4,6.4-3.6c1.5-0.8,4.2-1.4,1.6,0
		c-3.9,2.3-8,4.9-12.1,7.1c-4,2.2-7,3.8-9.8,3.6c-1.3-0.2-2.2-1.2-2.2-2.7c-0.1-0.8,0.2-1.6,0.2-2.6c-0.8-0.2-1.2,0.5-1.5,0.8
		c-2.4,2-4.7,4-7.5,5.5c-0.9,0.4-2,1-2.9,1.3C210.2,175.8,209.3,175,209.5,173.8z M225.3,162.3c-0.6-0.9-1.5-0.6-2.3-0.4
		c-5.4,2.3-9.5,6.2-12.2,11.3c-0.1,0.3,0.1,0.6,0.1,1.3C216.5,172.1,223.6,166.1,225.3,162.3z"/>
	<path class="st1" d="M241.8,175.6c-0.2,0-0.4-0.3-0.4-0.4c0.1-0.5,0.1-0.8,0.3-1.3c2.5-5.4,5-11,7.4-16.6c0.4-0.5,0.7-1.4,1.5-1.4
		c0.2,0,0.2,0.1,0.3,0.1l0,0.3c-2,4.4-3.9,8.6-6,13c1,0.4,1.1-0.3,1.4-0.6l6.5-7.1c1.2-1.1,2.5-1.9,3.9-2.7c2-1,3.1-0.8,4.6,0.8
		l0.5,0.4c1.7,2.4,4,2.6,6.5,1.7c2.3-0.7,4.3-1.7,6.5-2.8c0.5-0.1,0.8-0.2,1.1-0.3c0.7,0.6,0.3,0.9,0,1.1c-2.4,1.4-5.1,2.5-7.7,3.1
		c-2.8,0.6-5.3,0.1-7.2-2.3c-1.2-1.8-2.4-1.8-4.1-0.5c-1.6,1.1-3.3,2.3-4.8,3.7c-2.7,3.2-5.3,6.5-7.8,9.7l-2,2.1
		C242.3,175.7,242,175.7,241.8,175.6z"/>
	<path class="st1" d="M321.5,125.1c0,0.3,0.1,0.8,0,1.1c-0.8,1.2-2.7,2.1-4.9,2.6c0.6-0.7,0.9-1.1,1.3-1.4c0.4-0.4,0.9-0.6,1.2-0.9
		c-0.1-0.8-0.4-0.8-0.9-0.7l-5.1,0.5c-4.9,0.7-9.7,1.5-14.6,2c-1.4,0.3-2.5,0.9-3.3,2.1l-14.5,22.6c-0.7,0.9-1.4,1.6-2,2.5
		c-0.6,0.7-1.1,1.6-1.5,2.4c-3.4,7.6-6.3,15.5-8.8,23.3c-2.5,8-4.9,16.1-7.4,24.1c-0.1,0.5-0.2,0.8-0.6,1.7
		c-0.4-0.4-0.7-0.7-0.7-0.9c0.1-0.8,0.3-1.6,0.5-2.5c3.2-11,6.6-21.8,10.4-32.6c4.9-13.1,11.1-25.6,17.7-37.9l1.2-2.5
		c0.2,0,0-0.2-0.1-0.5c-3.2,0-6.5,0.8-9.7,1.5c-3.3,0.7-6.6,1.2-10.1,2l-9.6,2.5c-3,0.8-6.1,2.1-9.2,3.1c0-1.3,0.7-1.4,1-1.6
		c3.6-1.2,7-2.5,10.4-3.4c8.6-2.4,17.4-4.3,26.3-5.5c1.8-0.2,2.8-1.1,3.8-2.5c1.9-3.1,4-6.1,6.3-8.9c0.8-1.2,2.2-2.2,3.5-3.1
		c0.1-0.2,0.9-0.3,1.1-0.1c0.2,0.3,0.6,0.9,0.5,1.4c-0.2,0.8-0.8,1.7-1.2,2.5l-4.1,7c-0.3,0.5-0.5,1-0.8,1.5
		c0.7,0.7,1.5,0.5,2.3,0.2c4.9-0.5,9.8-1.4,14.9-2.1l3.5-0.4C319.4,124.6,320.5,124.4,321.5,125.1z M294.1,129.5
		c-1.5-0.3-2.6,0.1-3.2,1.5c-2.4,4.4-4.7,9-7.1,13.5c0,0-0.9,2.2-1.1,2.2c0.2,0.1,0.2,0.3,0.4,0.3c1.1-1.7,1-1.4,1.7-2.3l8.8-14
		C293.9,130.5,294,130,294.1,129.5z M296.2,126.5c1.8-3.1,3.7-6.2,5.4-9.4c0.1-0.2,0.1-0.5,0.1-0.8c-2.8,2.1-7.1,7.8-8.5,11.4
		C294.6,128.1,295.5,127.7,296.2,126.5z"/>
	<path class="st1" d="M328.7,162.7c-0.7-2.2-0.8-4.4-0.4-6.6c0.5-2.6,1.1-5.1,1.8-7.6c4.4-13.5,11.6-25.4,21-35.9
		c1.4-1.6,3.1-2.9,4.7-4.4c0.7-0.6,1.8-1.2,2.7-1.4c1.2-0.5,2.5,0.4,2.4,1.7c0.1,0.8,0,1.8-0.4,2.5c-0.7,2.2-1.6,4.4-2.7,6.6
		c-2.4,4.8-5.3,9.1-8.6,13.5c-5.2,7-11,13.6-17.1,19.8c-3.3,3.4-3.4,7.3-2.5,11.4c0.6,2.4,1.9,3,4.4,2.3l0.3,0
		c3.1-1.1,5.6-3.2,7.9-5.7c-0.7-0.9-1.1-1.3-1.5-1.9c-1.9-3,0.4-6.6,3.2-7.4l1.3-0.1c1.6,0.2,2.7,1.5,2.3,3.1
		c-0.2,0.8-0.6,1.7-1,2.5c-0.4,0.8-0.9,1.7-1.5,2.4c0.4,0.8,1,0.5,1.5,0.3c1.4-0.5,2.8-0.9,4.2-1.6c3.7-1.8,7.3-3.7,10.6-6.3
		c0.3-0.2,0.6-0.2,0.9-0.3c0.2,0,0.2,0.1,0.4,0.3c-0.3,0.5-0.7,1-1.1,1.4c-4,2.8-8.5,5.2-13.3,7c-1.1,0.4-2.2,0.6-3.3,0.7
		c-1,0.1-1.6,0.5-2.3,1c-1.5,1.3-3.1,2.6-4.7,3.9c-1.2,0.9-2.7,1.4-4.3,1.7C331.3,166.1,329.4,165,328.7,162.7z M332.7,148.8
		c6.2-6.6,12.3-13.5,17.6-21.2c2.5-3.6,4.7-7.4,6.8-11.3c1.1-1.7,1.7-3.7,2.3-5.6c0.2-0.8,0.3-1.6,0.5-3c-0.9,0.3-1.4,0.3-1.7,0.5
		c-0.8,0.4-1.5,0.8-2.1,1.5c-2.2,2-4.4,4-6.3,6.3c-4.7,5.5-8.8,11.5-12.1,18c-2.4,4.3-4.4,8.8-6,13.3c-0.2,0.7-0.3,1.5-0.7,2.8
		C332,149.5,332.4,149.1,332.7,148.8z M344.9,155.7c0.7-1.2,1.2-2.4,1.7-3.7c0.4-1-0.7-1.9-1.6-1.6c-1.7,0.3-2.9,1.6-3.3,3.4
		c-0.3,1.5,0,2.9,1.7,3.8C343.9,156.9,344.4,156.4,344.9,155.7z"/>
	<path class="st1" d="M359,160l0.3-2c0.6-3.4,2-6.7,3.6-9.9c0.1-0.3,0.6-0.5,0.9-0.7c0.7,0.7,0.5,1.2,0.2,1.9
		c-1.8,2.6-2.6,5.4-3.4,8.6c-0.2,1-0.4,2,0,3.1c0.7,0.7,1.6,0.3,2.2-0.1c2-1.2,3.8-2.3,5.4-3.9c2.6-2.5,4.9-5.3,7.4-8
		c0.6-0.5,1-0.9,1.5-1.4c0.7,0.6,0.6,0.9,0.3,1.6c-0.7,2.3-1.5,4.5-2.2,7c-0.4,1.2-0.7,2.6,0.5,3.5c1.2,0.7,2.4-0.4,3.3-1
		c1.3-0.9,2.7-2.1,4-3.2l9.3-8.4c0.4-0.4,0.9-0.9,1.7-0.3l-0.8,1.2c-3.7,3.3-7.4,6.6-11,9.7c-1.3,1.1-2.8,2.1-4.4,2.7
		c-2.3,1-4-0.2-4-2.8l0.3-2.1c0.1-0.8,0.3-1.5,0.5-2.8l-2.5,2.4c-2.1,1.8-4,3.6-6.2,5.5c-1,0.8-2.3,1.4-3.7,1.8
		C360.4,162.9,359,161.9,359,160z"/>
	<path class="st1" d="M390.7,154.1l0.3-2c0.5-2.9,1.6-5.8,3.1-8.4l0.9-0.9c0.2,0,0.5-0.1,0.7,0.1c0.2,0.1,0.2,0.5,0.2,0.6l-0.7,1
		c-1.5,2.6-2.6,5.4-3.1,8.4c-0.5,3.3,0.9,4.4,4.1,3.6c2.2-0.7,4-1.9,5.8-3.3c3.1-2.4,6.1-5,9.2-7.6c0.6-0.4,1.2-0.9,2-1.3
		c0.2,0.1,0.2,0.3,0.4,0.6c-4,3.3-7.8,6.9-10,8.6c-1.6,1.3-3.3,2.3-5.1,3.3c-1.1,0.4-2.5,0.7-3.6,0.9
		C392.3,157.9,390.8,156.3,390.7,154.1z M398.3,135.6c0.1-0.3,0.6-0.5,0.9-0.3c0.2,0.3,0.3,0.9,0.1,1.1c-0.4,0.7-0.5,1.7-2.1,1.5
		C397.6,136.9,397.9,136.2,398.3,135.6z"/>
	<path class="st1" d="M411.2,158.8c-0.5-1.4-0.6-3-0.6-4.4c0-2.6,2.1-10.7,3.5-14.5c3.9-10.7,8.7-20.9,14.8-30.4
		c2.6-4.1,5.3-8.1,8.6-11.5c1.6-1.6,3.4-3.1,5-4.4c0.7-0.6,1.5-1,2.3-1.2c1.9-0.7,3.3,0.3,3.1,2.2c-0.1,1-0.4,2.1-0.8,3.1
		c-1.1,3-2.8,5.9-4.6,8.7c-2.7,3.8-5.3,7.5-8,11.1c-6,8.4-12.3,16.4-19,24.2c-0.9,0.9-1.6,1.9-1.8,3.2c-1.3,5.9-2.7,7.7-1.5,13.5
		c0.3,1.3,1.3,1.8,2.6,1.3c1.1-0.3,2.2-0.9,3.1-1.5c2.4-1.4,4.5-3.2,6.5-5.2c2.9-3,6-6.1,9-9.2l1.8-1.6c1.2-0.8,2.4-1.2,1,0.5
		l-11.5,11.5c-1.9,2-4,3.6-6.2,5c-1.1,0.4-2.1,1-3.2,1.3C413.4,161.5,411.9,160.7,411.2,158.8z M418.5,136.3
		c7.6-9.2,14.6-18.6,21.5-28.3c1.2-1.9,2.6-4,3.7-5.9c0.9-1.9,1.7-3.7,2.5-5.6c0.4-1,0.9-2,0.1-3.2c-1.3-0.2-2.2,0.4-3.1,1.1
		c-1.5,1.3-3.1,2.6-4.4,4c-2.2,2.5-4.3,5-6.1,7.6c-6.7,9.4-11.9,19.9-16.1,30.7c-0.3,0.7-0.7,1.2-0.3,2
		C417,137.9,417.8,137.2,418.5,136.3z"/>
	<path class="st1" d="M473.6,103.9c-0.2,1-0.6,2-1.1,3c-1.1,1.9-2.2,3.9-3.4,5.7c-3.9,5.6-7.8,11.1-11.9,16.7
		c-1.3,1.7-2.4,3.6-3.1,5.8c-3.6,10.2-6.2,20.6-8.3,31.1c-0.9,5.2-1.9,10.5-2.8,15.8c-0.1,0.7-0.3,1.3-0.6,2
		c-0.8,0.1-0.8-0.4-0.7-0.9c-0.1-0.5,0-1.1,0.1-1.8c1.8-10,3.7-20,6.2-29.8c1-4.3,2.5-8.6,3.6-12.9c0.3-0.7,0.3-1.3,0.2-2.3
		c-0.4,0.5-0.9,1.1-1.5,1.4c-2.9,3.2-5.8,6.2-8.7,9.3c-1.6,1.5-3.6,2.8-5.4,4.1c-0.9,0.6-2,0.9-3,1c-1.3,0.3-2.2-0.6-2.1-1.7
		c0-1.1,0.3-2.1,0.6-3.1c2.5-5.1,6.5-8.7,11.7-10.7c1.8-0.8,3.8-1,5.3,1.2l4.7-5.8c0.7-1,1.1-2,1.6-3.2c2.5-6.4,5.4-12.5,9.2-18.2
		c1.5-2.3,3.1-4.4,4.8-6.3c0.7-0.9,1.6-1.5,2.5-1.9c0.5-0.2,1.1-0.1,1.5,0.2C473.5,102.8,473.8,103.4,473.6,103.9z M448.2,138.5
		c-0.8-1.2-1.5-1.6-2.6-1.3c-1.1,0.3-2,0.5-2.9,1.1c-3.8,1.9-6.8,4.6-8.8,8c-0.5,1-1.1,2-1.3,3c-0.3,0.5,0,1.1,0,1.8
		c2.4-0.4,2.4-0.3,4.2-1.6C441.1,146.5,444.6,142.6,448.2,138.5z M472.3,103.6c-1.4,0.2-1.8,1-2.4,1.7c-5.2,5.9-9.4,12.7-12,20.1
		c0,0-0.6,1.7,1.5-1l10.1-14.4c1-1.6,1.8-3.2,2.6-4.8L472.3,103.6z"/>
	<path class="st1" d="M460.4,146.7l0.3-2c0.5-2.9,1.6-5.8,3.1-8.4l0.9-0.9c0.2,0,0.5-0.1,0.7,0.1c0.2,0.1,0.2,0.5,0.2,0.6l-0.7,1
		c-1.5,2.6-2.6,5.4-3.1,8.4c-0.5,3.3,0.9,4.4,4.1,3.6c2.2-0.7,4-1.9,5.8-3.3c3.1-2.4,6.1-5,9.2-7.6c0.6-0.4,1.2-0.9,2-1.3
		c0.2,0.1,0.2,0.3,0.4,0.6c-4,3.3-7.8,6.9-10,8.6c-1.6,1.3-3.3,2.3-5.1,3.3c-1.1,0.4-2.5,0.7-3.6,0.9
		C462,150.6,460.5,148.9,460.4,146.7z M468,128.2c0.1-0.3,0.6-0.5,0.9-0.3c0.2,0.3,0.3,0.9,0.1,1.1c-0.4,0.7-0.5,1.7-2.1,1.5
		C467.3,129.6,467.6,128.9,468,128.2z"/>
	<path class="st1" d="M477.3,147.8c0.2-0.8,0.5-1.7,0.9-2.5l8.3-17.3c0.1-0.3,0.3-0.7,0.4-1c1.3,0.3,1.4,0.8,1,1.5
		c-2.9,5-5.2,10.2-7.7,15.5c-0.1,0.2-0.1,0.5-0.1,0.8c0.8,0.2,1.1-0.4,1.5-0.8l7.7-7.6c1-0.9,2.1-1.5,3.1-2.3
		c0.7-0.6,1.7-1.1,2.5-0.6c1,0.7,1.1,1.6,1.1,2.6l-0.2,2.4c-0.1,0.7,0,1.1-0.2,1.6c0,3.2,1.4,4.2,4.5,3.1c1.4-0.5,2.8-1.3,4-2
		c3.5-2.3,6.9-4.8,10.2-7.2c0.6-0.2,1.1-0.6,1.5-1c0.7,0.4,0.6,0.7,0.3,1.1c-0.1,0.2-0.4,0.5-0.7,0.6c-4,2.8-7.9,5.7-12,8.3
		c-1.3,0.9-2.7,1.4-4.2,1.6c-2.9,0.1-4.3-0.8-4.6-3.7c-0.1-1.3,0-2.7,0.1-4c0.1-0.8,0-1.4-0.1-2.4c-0.8,0.2-1.4,0.3-1.9,0.7
		c-1.3,1.1-2.7,2.1-4,3.3l-8.3,8.3c-0.7,0.7-1.4,1.6-2.2,2.2C477.2,148.8,477.2,148.3,477.3,147.8z"/>
	<path class="st1" d="M506.2,189.4c-0.1-1.1-0.1-2.4,0.3-3.4c0.7-2.2,1.6-4.5,2.5-6.5c2.1-4.4,4.9-8.2,7.9-12.1
		c4.6-5.6,9.6-11.2,14.9-16.2c1.4-1.6,2.4-3.2,2.5-5.4c0.1-4,0.4-8.1-0.9-12c-0.3-0.9-0.5-1.9-1.1-2.6c-0.6-1.1-1.6-1.4-2.7-0.8
		c-0.9,0.4-1.8,1.2-2.5,1.9c-1.5,1.3-2.6,2.7-3.9,4.1c-1.4,1.6-2.7,3-4.2,4.5c-0.7,0.7-1.5,1.3-2.4,1.7c-1.2,0.6-2.7,0-3-1.3
		c-0.1-1.1-0.2-2.2,0-3.2c0.4-1.2,0.9-2.3,1.6-3.5c1.9-3.3,4.9-5.5,8.5-6.8c0.9-0.4,1.9-0.5,2.8-0.6c0.7,0.1,1.6,0.3,1.9,0.8
		c0.8,1,1.6,1.3,2.7,1.3c1.1,0,2,0.9,2.4,1.8c0.6,1.1,1,2.3,1.3,3.6c0.8,3.5,0.9,7,0.8,10.5c-0.1,0.5,0,1.1,0.1,2.1l2.7-2.2
		c5-4.6,10-9.1,15-13.7c0.7-0.6,1.6-1.3,2.5-1.9c0.1-0.2,0.5-0.1,0.8-0.1c0.1,1.1-0.7,1.4-1.3,1.7L538.6,146
		c-0.7,0.7-1.5,1.4-2.3,2.2c-0.9,0.7-1.4,1.8-1.6,3.1c-1.6,9.5-5.1,18.4-9.6,26.9c-1.8,3.2-3.7,6.2-6.1,9c-1.4,1.6-2.9,3.2-4.9,4.2
		c-1.2,0.6-2.4,1.2-3.9,1.4C508,193.2,506.2,191.8,506.2,189.4z M515.5,189c2.1-1.8,3.8-3.9,5.3-6.4c6-9,10.1-18.9,12.3-29.5
		c0.1-0.5,0.1-0.8,0.2-1.6c-0.6,0.4-1.1,0.6-1.2,0.9c-5.5,5.6-10.9,11.3-15.5,17.4c-2.4,3.2-4.6,6.4-6.3,10
		c-0.8,1.7-1.6,3.4-2.2,5.2c-0.4,1.2-0.6,2.3-0.6,3.4c-0.2,2.8,1,3.8,3.7,3C512.8,191.1,514.1,190.1,515.5,189z M516.5,141.1
		c0.7-0.6,1.5-1.1,2.2-1.8c3-3.4,6-6.8,9.2-10.2c-0.3-1.3-1.2-1.2-2.2-1.1c-4.6,0.5-10.3,5.8-11.1,10.4c-0.2,1-0.4,2.1,0.5,3.2
		C515.6,141.4,516.1,141.3,516.5,141.1z"/>
</g>
<g class="st0">
	<path class="st2" d="M29.2,205.6c-1.5-0.3-2.4-1.2-2.5-2.8c-0.1-1,0.1-1.9,0.2-2.9c1.7-14.7,5.8-28.8,12-42.3
		c5.9-12.5,13.2-24.4,21.9-35.3c2.3-2.8,4.9-5.5,7.5-8.4c0.6-0.5,1.2-1.1,1.9-1.7c0.2,0,0.7,0.1,0.8,0.2c0.2,0,0.2,0.5,0.2,0.5
		c-0.8,1.4-1.7,2.6-2.5,3.8c0,0.2-0.1,0.2-0.1,0.2c-2.1-0.4-2.8,1.3-3.8,2.5c-18.4,22.1-31.3,46.9-36,75.6c-0.3,1.8-0.6,3.6-0.7,5.4
		c-0.1,1-0.1,1.9,0,2.9c0.1,0.6,0.5,1.2,1.2,1.2c1.3,0.2,2.8,0.2,4-0.1c3.5-0.7,6.9-1.5,10.4-2.5c9.1-2.2,18.2-4.7,27.3-6.7
		c3.9-0.9,7.9-1.8,11.9-1.6c0.5,0.1,0.8,0.2,1.3,0.2l0.1,0.6c-1.3,0-2.6,0.1-3.7,0.1c-4.5,0.3-8.7,1.4-13,2.3
		c-10.2,2.7-20.5,5.4-30.7,7.9c-1.9,0.5-3.8,0.7-5.7,0.9C30.4,205.6,29.8,205.7,29.2,205.6z"/>
	<path class="st2" d="M81.8,188.9c-3.9,0.1-5.3-4.6-1.2-8.7c1.5-2.1,3.5-3.9,5.9-4.8c0.6-0.2,1.4-0.3,2.1-0.4
		c1.3,0.2,1.9,1.4,1.1,2.5c-0.6,0.7-1.5,1.4-2.2,2.2c-1.9,1.5-4.2,2.7-6.4,3.6c-0.8,0.2-1.4,0.6-1.6,1.5c-0.5,1.8,0.3,3,2.3,3.3
		c1.9,0.1,4.6-0.6,6.3-1.5c2-1,3.2-1.9,5-3.3l6.7-5.2c1.9-1.7,3.4-1,1.6,0.2c-3.4,2.8-5.8,4.6-9.4,7.3c-2.2,1.7-4.7,2.9-7.5,3.4
		C83.6,188.9,82.6,189,81.8,188.9z M86.5,178.8c0.9-0.7,1.8-1.2,2-2.5c-1.2-0.5-2.1,0.4-3,0.8c-1.8,1.2-2.8,2.2-3.7,4.3
		C83.7,180.8,85.2,179.7,86.5,178.8z"/>
	<path class="st2" d="M147.4,143.5c0,0.3,0.1,0.8,0,1.1c-0.8,1.2-2.7,2.1-4.9,2.6c0.6-0.7,0.9-1.1,1.3-1.4c0.4-0.4,0.9-0.6,1.2-0.9
		c-0.1-0.8-0.4-0.8-0.9-0.7l-5.1,0.5c-4.9,0.7-9.7,1.5-14.6,2c-1.4,0.3-2.5,0.9-3.3,2.1l-14.5,22.6c-0.7,0.9-1.4,1.6-2,2.5
		c-0.6,0.7-1.1,1.6-1.5,2.4c-3.4,7.6-6.3,15.5-8.8,23.3c-2.5,8-4.9,16.1-7.4,24.1c-0.1,0.5-0.2,0.8-0.6,1.7
		c-0.4-0.4-0.7-0.7-0.7-0.9c0.1-0.8,0.3-1.6,0.5-2.5c3.2-11,6.6-21.8,10.4-32.6c4.9-13.1,11.1-25.6,17.7-37.9l1.2-2.5
		c0.2,0,0-0.2-0.1-0.5c-3.2,0-6.5,0.8-9.7,1.5c-3.3,0.7-6.6,1.2-10.1,2l-9.6,2.5c-3,0.8-6.1,2.1-9.2,3.1c0-1.3,0.7-1.4,1-1.6
		c3.6-1.2,7-2.5,10.4-3.4c8.6-2.4,17.4-4.3,26.3-5.5c1.8-0.2,2.8-1.1,3.8-2.5c1.9-3.1,4-6.1,6.3-8.9c0.8-1.2,2.2-2.2,3.5-3.1
		c0.1-0.2,0.9-0.3,1.1-0.1c0.2,0.3,0.6,0.9,0.5,1.4c-0.2,0.8-0.8,1.7-1.2,2.5l-4.1,7c-0.3,0.5-0.5,1-0.8,1.5
		c0.7,0.7,1.5,0.5,2.3,0.2c4.9-0.5,9.8-1.4,14.9-2.1l3.5-0.4C145.2,142.9,146.3,142.8,147.4,143.5z M119.4,149
		c0.3-0.2,0.4-0.7,0.5-1.2c-1.5-0.3-2.6,0.1-3.2,1.5c-2.4,4.4-4.7,9-7.1,13.5c0,0-0.9,2.2-1.1,2.2c0.2,0.1,0.2,0.3,0.4,0.3
		c1.1-1.7,1-1.4,1.7-2.3L119.4,149L119.4,149z M122.1,144.9c1.8-3.1,3.7-6.2,5.4-9.4c0.1-0.2,0.1-0.5,0.1-0.8
		c-2.8,2.1-7.1,7.8-8.5,11.4C120.5,146.5,121.4,146.1,122.1,144.9z"/>
	<path class="st2" d="M108.7,138.3c-0.2-0.1-0.2-0.5-0.2-0.8c-0.2-0.6-0.5-1.2-0.5-1.7c-0.1-0.8,0.5-1.5,1-1.6
		c0.8,0.1,1.2,0.7,1.3,1.3c0.2,2.1-0.2,4-2.5,5.1C108,139.9,108.3,139.1,108.7,138.3z"/>
	<path class="st2" d="M114.5,199.3c0.8-1.5,1.8-2.9,2.9-4.2c2.3-2.3,4.8-4.5,7.3-6.7c1.6-1.3,3.3-2.6,4.9-4.1
		c0.1-3.2-0.5-6.2-1.3-9.2c-0.3-1.6-0.8-3.1-1.1-4.7c-0.3-1.7-0.2-3.4,1.1-4.8l1-0.8c0.5-0.2,1.5,0.3,1.5,0.8
		c0.3,1.1,0.1,2.1-0.8,2.8c-1-0.4-0.3-1.1-0.6-1.5l-0.5,0.1c-1,1.6-0.8,3.1-0.5,4.7c0.3,1.3,0.7,2.3,1,3.6l1.6,7.4
		c0.5-0.2,1.1-0.3,1.5-0.6c3.7-3,7.4-5.9,11.2-8.7c0.4-0.5,1-0.8,1.7-1.1c0.5,0.6,0.3,0.9,0,1.3c-0.7,0.6-1.6,1.3-2.4,2
		c-4,3-7.9,6.1-11.9,9.3l-0.4,4.2c-0.2,2.6-0.9,5.2-1.8,7.8c-0.9,2-2,3.8-3.5,5.4c-2,2.1-4.5,3.2-7.4,3
		C114.6,205.1,112.9,202.5,114.5,199.3z M126.5,198.8c1.8-3.1,2.7-6.6,3.1-10l0.1-2.3c-0.6,0.2-1,0.1-1.1,0.3
		c-3.7,3-7.3,5.8-10.3,9.1c-0.9,1.1-1.7,2-2.2,3.1c-0.6,0.7-0.8,1.7-0.8,2.7c0,1.1,0.7,2,1.9,2.4c1.1,0.2,2.3,0.2,3.4,0
		C123.4,203.4,125.1,201.2,126.5,198.8z"/>
	<path class="st2" d="M174.5,193c0.8-1.5,1.8-2.9,2.9-4.2c2.3-2.3,4.8-4.5,7.3-6.7c1.6-1.3,3.3-2.6,4.9-4.1c0.1-3.2-0.5-6.2-1.3-9.2
		c-0.3-1.6-0.8-3.1-1.1-4.7c-0.3-1.7-0.2-3.4,1.1-4.8l1-0.8c0.5-0.2,1.5,0.3,1.5,0.8c0.3,1.1,0.1,2.1-0.8,2.8
		c-1-0.4-0.3-1.1-0.6-1.5l-0.5,0.1c-1,1.6-0.8,3.1-0.5,4.7c0.3,1.3,0.7,2.3,1,3.6l1.6,7.4c0.5-0.2,1.1-0.3,1.5-0.6
		c3.7-3,7.4-5.9,11.2-8.7c0.4-0.5,1-0.8,1.6-1.1c0.5,0.6,0.3,0.9,0,1.3c-0.7,0.6-1.6,1.3-2.4,2c-4,3-7.9,6.1-11.9,9.3l-0.4,4.2
		c-0.2,2.6-0.9,5.2-1.8,7.8c-0.9,2-2,3.8-3.5,5.4c-2,2.1-4.5,3.2-7.4,3C174.6,198.8,172.9,196.2,174.5,193z M186.5,192.5
		c1.8-3.1,2.7-6.6,3.1-10l0.1-2.3c-0.6,0.2-1,0.1-1.1,0.3c-3.7,3-7.3,5.8-10.3,9.1c-0.9,1.1-1.7,2-2.2,3.1c-0.6,0.7-0.8,1.7-0.8,2.7
		c0,1.1,0.7,2,1.9,2.4c1.1,0.2,2.3,0.2,3.4,0C183.4,197,185.1,194.9,186.5,192.5z"/>
	<path class="st2" d="M251,132.6c0,0.3,0.1,0.8,0,1.1c-0.8,1.2-2.7,2.1-4.9,2.6c0.6-0.7,0.9-1.1,1.3-1.4c0.4-0.4,0.9-0.6,1.2-0.9
		c-0.1-0.8-0.4-0.8-0.9-0.7l-5.1,0.5c-4.9,0.7-9.7,1.5-14.6,2c-1.4,0.3-2.5,0.9-3.3,2.1l-14.5,22.6c-0.7,0.9-1.4,1.6-2,2.5
		c-0.6,0.7-1.1,1.6-1.5,2.4c-3.4,7.6-6.3,15.5-8.8,23.3c-2.5,8-4.9,16.1-7.4,24.1c-0.1,0.5-0.2,0.8-0.6,1.7
		c-0.4-0.4-0.7-0.7-0.7-0.9c0.1-0.8,0.3-1.6,0.5-2.5c3.2-11,6.6-21.8,10.4-32.6c4.9-13.1,11.1-25.6,17.7-37.9l1.2-2.5
		c0.2,0,0-0.2-0.1-0.5c-3.2,0-6.5,0.8-9.7,1.5c-3.3,0.7-6.6,1.2-10.1,2l-9.6,2.5c-3,0.8-6.1,2.1-9.2,3.1c0-1.3,0.7-1.4,1-1.6
		c3.6-1.2,7-2.5,10.4-3.4c8.6-2.4,17.4-4.3,26.3-5.5c1.8-0.2,2.8-1.1,3.8-2.5c1.9-3.1,4-6.1,6.3-8.9c0.8-1.2,2.2-2.2,3.5-3.1
		c0.1-0.2,0.9-0.3,1.1-0.1c0.2,0.3,0.6,0.9,0.5,1.4c-0.2,0.8-0.8,1.7-1.2,2.5l-4.1,7c-0.3,0.5-0.5,1-0.8,1.5
		c0.7,0.7,1.5,0.5,2.3,0.2c4.9-0.5,9.8-1.4,14.9-2.1l3.5-0.4C248.8,132,250,131.9,251,132.6z M223.1,138.1c0.3-0.2,0.4-0.7,0.5-1.2
		c-1.5-0.3-2.6,0.1-3.2,1.5c-2.4,4.4-4.7,9-7.1,13.5c0,0-0.9,2.2-1.1,2.2c0.2,0.1,0.2,0.3,0.4,0.3c1.1-1.7,1-1.4,1.7-2.3
		L223.1,138.1L223.1,138.1z M225.7,134c1.8-3.1,3.7-6.2,5.4-9.4c0.1-0.2,0.1-0.5,0.1-0.8c-2.8,2.1-7.1,7.8-8.5,11.4
		C224.1,135.6,225,135.2,225.7,134z"/>
	<path class="st2" d="M209.5,173.8c0.2-0.8,0.5-1.7,0.9-2.3c2.5-4.1,6-7.6,10.2-9.8c1.1-0.4,2.3-0.9,3.4-1c1.8-0.2,2.9,1.6,2.3,3.3
		l-1.9,4.7c-0.4,1.2-0.7,2.3,0.4,3.3c1.6,1.3,7.4-1.7,14.4-5.9c2.1-1.3,4.1-2.4,6.4-3.6c1.5-0.8,4.2-1.4,1.6,0
		c-3.9,2.3-8,4.9-12.1,7.1c-4,2.2-7,3.8-9.8,3.6c-1.3-0.2-2.2-1.2-2.2-2.7c-0.1-0.8,0.2-1.6,0.2-2.6c-0.8-0.2-1.2,0.5-1.5,0.8
		c-2.4,2-4.7,4-7.5,5.5c-0.9,0.4-2,1-2.9,1.3C210.2,175.8,209.3,175,209.5,173.8z M225.3,162.3c-0.6-0.9-1.5-0.6-2.3-0.4
		c-5.4,2.3-9.5,6.2-12.2,11.3c-0.1,0.3,0.1,0.6,0.1,1.3C216.5,172.1,223.6,166.1,225.3,162.3z"/>
	<path class="st2" d="M241.8,175.6c-0.2,0-0.4-0.3-0.4-0.4c0.1-0.5,0.1-0.8,0.3-1.3c2.5-5.4,5-11,7.4-16.6c0.4-0.5,0.7-1.4,1.5-1.4
		c0.2,0,0.2,0.1,0.3,0.1l0,0.3c-2,4.4-3.9,8.6-6,13c1,0.4,1.1-0.3,1.4-0.6l6.5-7.1c1.2-1.1,2.5-1.9,3.9-2.7c2-1,3.1-0.8,4.6,0.8
		l0.5,0.4c1.7,2.4,4,2.6,6.5,1.7c2.3-0.7,4.3-1.7,6.5-2.8c0.5-0.1,0.8-0.2,1.1-0.3c0.7,0.6,0.3,0.9,0,1.1c-2.4,1.4-5.1,2.5-7.7,3.1
		c-2.8,0.6-5.3,0.1-7.2-2.3c-1.2-1.8-2.4-1.8-4.1-0.5c-1.6,1.1-3.3,2.3-4.8,3.7c-2.7,3.2-5.3,6.5-7.8,9.7l-2,2.1
		C242.3,175.7,242,175.7,241.8,175.6z"/>
	<path class="st2" d="M321.5,125.1c0,0.3,0.1,0.8,0,1.1c-0.8,1.2-2.7,2.1-4.9,2.6c0.6-0.7,0.9-1.1,1.3-1.4c0.4-0.4,0.9-0.6,1.2-0.9
		c-0.1-0.8-0.4-0.8-0.9-0.7l-5.1,0.5c-4.9,0.7-9.7,1.5-14.6,2c-1.4,0.3-2.5,0.9-3.3,2.1l-14.5,22.6c-0.7,0.9-1.4,1.6-2,2.5
		c-0.6,0.7-1.1,1.6-1.5,2.4c-3.4,7.6-6.3,15.5-8.8,23.3c-2.5,8-4.9,16.1-7.4,24.1c-0.1,0.5-0.2,0.8-0.6,1.7
		c-0.4-0.4-0.7-0.7-0.7-0.9c0.1-0.8,0.3-1.6,0.5-2.5c3.2-11,6.6-21.8,10.4-32.6c4.9-13.1,11.1-25.6,17.7-37.9l1.2-2.5
		c0.2,0,0-0.2-0.1-0.5c-3.2,0-6.5,0.8-9.7,1.5c-3.3,0.7-6.6,1.2-10.1,2l-9.6,2.5c-3,0.8-6.1,2.1-9.2,3.1c0-1.3,0.7-1.4,1-1.6
		c3.6-1.2,7-2.5,10.4-3.4c8.6-2.4,17.4-4.3,26.3-5.5c1.8-0.2,2.8-1.1,3.8-2.5c1.9-3.1,4-6.1,6.3-8.9c0.8-1.2,2.2-2.2,3.5-3.1
		c0.1-0.2,0.9-0.3,1.1-0.1c0.2,0.3,0.6,0.9,0.5,1.4c-0.2,0.8-0.8,1.7-1.2,2.5l-4.1,7c-0.3,0.5-0.5,1-0.8,1.5
		c0.7,0.7,1.5,0.5,2.3,0.2c4.9-0.5,9.8-1.4,14.9-2.1l3.5-0.4C319.4,124.6,320.5,124.4,321.5,125.1z M294.1,129.5
		c-1.5-0.3-2.6,0.1-3.2,1.5c-2.4,4.4-4.7,9-7.1,13.5c0,0-0.9,2.2-1.1,2.2c0.2,0.1,0.2,0.3,0.4,0.3c1.1-1.7,1-1.4,1.7-2.3l8.8-14
		C293.9,130.5,294,130,294.1,129.5z M296.2,126.5c1.8-3.1,3.7-6.2,5.4-9.4c0.1-0.2,0.1-0.5,0.1-0.8c-2.8,2.1-7.1,7.8-8.5,11.4
		C294.6,128.1,295.5,127.7,296.2,126.5z"/>
	<path class="st2" d="M328.7,162.7c-0.7-2.2-0.8-4.4-0.4-6.6c0.5-2.6,1.1-5.1,1.8-7.6c4.4-13.5,11.6-25.4,21-35.9
		c1.4-1.6,3.1-2.9,4.7-4.4c0.7-0.6,1.8-1.2,2.7-1.4c1.2-0.5,2.5,0.4,2.4,1.7c0.1,0.8,0,1.8-0.4,2.5c-0.7,2.2-1.6,4.4-2.7,6.6
		c-2.4,4.8-5.3,9.1-8.6,13.5c-5.2,7-11,13.6-17.1,19.8c-3.3,3.4-3.4,7.3-2.5,11.4c0.6,2.4,1.9,3,4.4,2.3l0.3,0
		c3.1-1.1,5.6-3.2,7.9-5.7c-0.7-0.9-1.1-1.3-1.5-1.9c-1.9-3,0.4-6.6,3.2-7.4l1.3-0.1c1.6,0.2,2.7,1.5,2.3,3.1
		c-0.2,0.8-0.6,1.7-1,2.5c-0.4,0.8-0.9,1.7-1.5,2.4c0.4,0.8,1,0.5,1.5,0.3c1.4-0.5,2.8-0.9,4.2-1.6c3.7-1.8,7.3-3.7,10.6-6.3
		c0.3-0.2,0.6-0.2,0.9-0.3c0.2,0,0.2,0.1,0.4,0.3c-0.3,0.5-0.7,1-1.1,1.4c-4,2.8-8.5,5.2-13.3,7c-1.1,0.4-2.2,0.6-3.3,0.7
		c-1,0.1-1.6,0.5-2.3,1c-1.5,1.3-3.1,2.6-4.7,3.9c-1.2,0.9-2.7,1.4-4.3,1.7C331.3,166.1,329.4,165,328.7,162.7z M332.7,148.8
		c6.2-6.6,12.3-13.5,17.6-21.2c2.5-3.6,4.7-7.4,6.8-11.3c1.1-1.7,1.7-3.7,2.3-5.6c0.2-0.8,0.3-1.6,0.5-3c-0.9,0.3-1.4,0.3-1.7,0.5
		c-0.8,0.4-1.5,0.8-2.1,1.5c-2.2,2-4.4,4-6.3,6.3c-4.7,5.5-8.8,11.5-12.1,18c-2.4,4.3-4.4,8.8-6,13.3c-0.2,0.7-0.3,1.5-0.7,2.8
		C332,149.5,332.4,149.1,332.7,148.8z M344.9,155.7c0.7-1.2,1.2-2.4,1.7-3.7c0.4-1-0.7-1.9-1.6-1.6c-1.7,0.3-2.9,1.6-3.3,3.4
		c-0.3,1.5,0,2.9,1.7,3.8C343.9,156.9,344.4,156.4,344.9,155.7z"/>
	<path class="st2" d="M359,160l0.3-2c0.6-3.4,2-6.7,3.6-9.9c0.1-0.3,0.6-0.5,0.9-0.7c0.7,0.7,0.5,1.2,0.2,1.9
		c-1.8,2.6-2.6,5.4-3.4,8.6c-0.2,1-0.4,2,0,3.1c0.7,0.7,1.6,0.3,2.2-0.1c2-1.2,3.8-2.3,5.4-3.9c2.6-2.5,4.9-5.3,7.4-8
		c0.6-0.5,1-0.9,1.5-1.4c0.7,0.6,0.6,0.9,0.3,1.6c-0.7,2.3-1.5,4.5-2.2,7c-0.4,1.2-0.7,2.6,0.5,3.5c1.2,0.7,2.4-0.4,3.3-1
		c1.3-0.9,2.7-2.1,4-3.2l9.3-8.4c0.4-0.4,0.9-0.9,1.7-0.3l-0.8,1.2c-3.7,3.3-7.4,6.6-11,9.7c-1.3,1.1-2.8,2.1-4.4,2.7
		c-2.3,1-4-0.2-4-2.8l0.3-2.1c0.1-0.8,0.3-1.5,0.5-2.8l-2.5,2.4c-2.1,1.8-4,3.6-6.2,5.5c-1,0.8-2.3,1.4-3.7,1.8
		C360.4,162.9,359,161.9,359,160z"/>
	<path class="st2" d="M390.7,154.1l0.3-2c0.5-2.9,1.6-5.8,3.1-8.4l0.9-0.9c0.2,0,0.5-0.1,0.7,0.1c0.2,0.1,0.2,0.5,0.2,0.6l-0.7,1
		c-1.5,2.6-2.6,5.4-3.1,8.4c-0.5,3.3,0.9,4.4,4.1,3.6c2.2-0.7,4-1.9,5.8-3.3c3.1-2.4,6.1-5,9.2-7.6c0.6-0.4,1.2-0.9,2-1.3
		c0.2,0.1,0.2,0.3,0.4,0.6c-4,3.3-7.8,6.9-10,8.6c-1.6,1.3-3.3,2.3-5.1,3.3c-1.1,0.4-2.5,0.7-3.6,0.9
		C392.3,157.9,390.8,156.3,390.7,154.1z M398.3,135.6c0.1-0.3,0.6-0.5,0.9-0.3c0.2,0.3,0.3,0.9,0.1,1.1c-0.4,0.7-0.5,1.7-2.1,1.5
		C397.6,136.9,397.9,136.2,398.3,135.6z"/>
	<path class="st2" d="M411.2,158.8c-0.5-1.4-0.6-3-0.6-4.4c0-2.6,2.1-10.7,3.5-14.5c3.9-10.7,8.7-20.9,14.8-30.4
		c2.6-4.1,5.3-8.1,8.6-11.5c1.6-1.6,3.4-3.1,5-4.4c0.7-0.6,1.5-1,2.3-1.2c1.9-0.7,3.3,0.3,3.1,2.2c-0.1,1-0.4,2.1-0.8,3.1
		c-1.1,3-2.8,5.9-4.6,8.7c-2.7,3.8-5.3,7.5-8,11.1c-6,8.4-12.3,16.4-19,24.2c-0.9,0.9-1.6,1.9-1.8,3.2c-1.3,5.9-2.7,7.7-1.5,13.5
		c0.3,1.3,1.3,1.8,2.6,1.3c1.1-0.3,2.2-0.9,3.1-1.5c2.4-1.4,4.5-3.2,6.5-5.2c2.9-3,6-6.1,9-9.2l1.8-1.6c1.2-0.8,2.4-1.2,1,0.5
		l-11.5,11.5c-1.9,2-4,3.6-6.2,5c-1.1,0.4-2.1,1-3.2,1.3C413.4,161.5,411.9,160.7,411.2,158.8z M418.5,136.3
		c7.6-9.2,14.6-18.6,21.5-28.3c1.2-1.9,2.6-4,3.7-5.9c0.9-1.9,1.7-3.7,2.5-5.6c0.4-1,0.9-2,0.1-3.2c-1.3-0.2-2.2,0.4-3.1,1.1
		c-1.5,1.3-3.1,2.6-4.4,4c-2.2,2.5-4.3,5-6.1,7.6c-6.7,9.4-11.9,19.9-16.1,30.7c-0.3,0.7-0.7,1.2-0.3,2
		C417,137.9,417.8,137.2,418.5,136.3z"/>
	<path class="st2" d="M473.6,103.9c-0.2,1-0.6,2-1.1,3c-1.1,1.9-2.2,3.9-3.4,5.7c-3.9,5.6-7.8,11.1-11.9,16.7
		c-1.3,1.7-2.4,3.6-3.1,5.8c-3.6,10.2-6.2,20.6-8.3,31.1c-0.9,5.2-1.9,10.5-2.8,15.8c-0.1,0.7-0.3,1.3-0.6,2
		c-0.8,0.1-0.8-0.4-0.7-0.9c-0.1-0.5,0-1.1,0.1-1.8c1.8-10,3.7-20,6.2-29.8c1-4.3,2.5-8.6,3.6-12.9c0.3-0.7,0.3-1.3,0.2-2.3
		c-0.4,0.5-0.9,1.1-1.5,1.4c-2.9,3.2-5.8,6.2-8.7,9.3c-1.6,1.5-3.6,2.8-5.4,4.1c-0.9,0.6-2,0.9-3,1c-1.3,0.3-2.2-0.6-2.1-1.7
		c0-1.1,0.3-2.1,0.6-3.1c2.5-5.1,6.5-8.7,11.7-10.7c1.8-0.8,3.8-1,5.3,1.2l4.7-5.8c0.7-1,1.1-2,1.6-3.2c2.5-6.4,5.4-12.5,9.2-18.2
		c1.5-2.3,3.1-4.4,4.8-6.3c0.7-0.9,1.6-1.5,2.5-1.9c0.5-0.2,1.1-0.1,1.5,0.2C473.5,102.8,473.8,103.4,473.6,103.9z M448.2,138.5
		c-0.8-1.2-1.5-1.6-2.6-1.3c-1.1,0.3-2,0.5-2.9,1.1c-3.8,1.9-6.8,4.6-8.8,8c-0.5,1-1.1,2-1.3,3c-0.3,0.5,0,1.1,0,1.8
		c2.4-0.4,2.4-0.3,4.2-1.6C441.1,146.5,444.6,142.6,448.2,138.5z M472.3,103.6c-1.4,0.2-1.8,1-2.4,1.7c-5.2,5.9-9.4,12.7-12,20.1
		c0,0-0.6,1.7,1.5-1l10.1-14.4c1-1.6,1.8-3.2,2.6-4.8L472.3,103.6z"/>
	<path class="st2" d="M460.4,146.7l0.3-2c0.5-2.9,1.6-5.8,3.1-8.4l0.9-0.9c0.2,0,0.5-0.1,0.7,0.1c0.2,0.1,0.2,0.5,0.2,0.6l-0.7,1
		c-1.5,2.6-2.6,5.4-3.1,8.4c-0.5,3.3,0.9,4.4,4.1,3.6c2.2-0.7,4-1.9,5.8-3.3c3.1-2.4,6.1-5,9.2-7.6c0.6-0.4,1.2-0.9,2-1.3
		c0.2,0.1,0.2,0.3,0.4,0.6c-4,3.3-7.8,6.9-10,8.6c-1.6,1.3-3.3,2.3-5.1,3.3c-1.1,0.4-2.5,0.7-3.6,0.9
		C462,150.6,460.5,148.9,460.4,146.7z M468,128.2c0.1-0.3,0.6-0.5,0.9-0.3c0.2,0.3,0.3,0.9,0.1,1.1c-0.4,0.7-0.5,1.7-2.1,1.5
		C467.3,129.6,467.6,128.9,468,128.2z"/>
	<path class="st2" d="M477.3,147.8c0.2-0.8,0.5-1.7,0.9-2.5l8.3-17.3c0.1-0.3,0.3-0.7,0.4-1c1.3,0.3,1.4,0.8,1,1.5
		c-2.9,5-5.2,10.2-7.7,15.5c-0.1,0.2-0.1,0.5-0.1,0.8c0.8,0.2,1.1-0.4,1.5-0.8l7.7-7.6c1-0.9,2.1-1.5,3.1-2.3
		c0.7-0.6,1.7-1.1,2.5-0.6c1,0.7,1.1,1.6,1.1,2.6l-0.2,2.4c-0.1,0.7,0,1.1-0.2,1.6c0,3.2,1.4,4.2,4.5,3.1c1.4-0.5,2.8-1.3,4-2
		c3.5-2.3,6.9-4.8,10.2-7.2c0.6-0.2,1.1-0.6,1.5-1c0.7,0.4,0.6,0.7,0.3,1.1c-0.1,0.2-0.4,0.5-0.7,0.6c-4,2.8-7.9,5.7-12,8.3
		c-1.3,0.9-2.7,1.4-4.2,1.6c-2.9,0.1-4.3-0.8-4.6-3.7c-0.1-1.3,0-2.7,0.1-4c0.1-0.8,0-1.4-0.1-2.4c-0.8,0.2-1.4,0.3-1.9,0.7
		c-1.3,1.1-2.7,2.1-4,3.3l-8.3,8.3c-0.7,0.7-1.4,1.6-2.2,2.2C477.2,148.8,477.2,148.3,477.3,147.8z"/>
	<path class="st2" d="M506.2,189.4c-0.1-1.1-0.1-2.4,0.3-3.4c0.7-2.2,1.6-4.5,2.5-6.5c2.1-4.4,4.9-8.2,7.9-12.1
		c4.6-5.6,9.6-11.2,14.9-16.2c1.4-1.6,2.4-3.2,2.5-5.4c0.1-4,0.4-8.1-0.9-12c-0.3-0.9-0.5-1.9-1.1-2.6c-0.6-1.1-1.6-1.4-2.7-0.8
		c-0.9,0.4-1.8,1.2-2.5,1.9c-1.5,1.3-2.6,2.7-3.9,4.1c-1.4,1.6-2.7,3-4.2,4.5c-0.7,0.7-1.5,1.3-2.4,1.7c-1.2,0.6-2.7,0-3-1.3
		c-0.1-1.1-0.2-2.2,0-3.2c0.4-1.2,0.9-2.3,1.6-3.5c1.9-3.3,4.9-5.5,8.5-6.8c0.9-0.4,1.9-0.5,2.8-0.6c0.7,0.1,1.6,0.3,1.9,0.8
		c0.8,1,1.6,1.3,2.7,1.3c1.1,0,2,0.9,2.4,1.8c0.6,1.1,1,2.3,1.3,3.6c0.8,3.5,0.9,7,0.8,10.5c-0.1,0.5,0,1.1,0.1,2.1l2.7-2.2
		c5-4.6,10-9.1,15-13.7c0.7-0.6,1.6-1.3,2.5-1.9c0.1-0.2,0.5-0.1,0.8-0.1c0.1,1.1-0.7,1.4-1.3,1.7L538.6,146
		c-0.7,0.7-1.5,1.4-2.3,2.2c-0.9,0.7-1.4,1.8-1.6,3.1c-1.6,9.5-5.1,18.4-9.6,26.9c-1.8,3.2-3.7,6.2-6.1,9c-1.4,1.6-2.9,3.2-4.9,4.2
		c-1.2,0.6-2.4,1.2-3.9,1.4C508,193.2,506.2,191.8,506.2,189.4z M515.5,189c2.1-1.8,3.8-3.9,5.3-6.4c6-9,10.1-18.9,12.3-29.5
		c0.1-0.5,0.1-0.8,0.2-1.6c-0.6,0.4-1.1,0.6-1.2,0.9c-5.5,5.6-10.9,11.3-15.5,17.4c-2.4,3.2-4.6,6.4-6.3,10
		c-0.8,1.7-1.6,3.4-2.2,5.2c-0.4,1.2-0.6,2.3-0.6,3.4c-0.2,2.8,1,3.8,3.7,3C512.8,191.1,514.1,190.1,515.5,189z M516.5,141.1
		c0.7-0.6,1.5-1.1,2.2-1.8c3-3.4,6-6.8,9.2-10.2c-0.3-1.3-1.2-1.2-2.2-1.1c-4.6,0.5-10.3,5.8-11.1,10.4c-0.2,1-0.4,2.1,0.5,3.2
		C515.6,141.4,516.1,141.3,516.5,141.1z"/>
</g>
<g class="st0">
	<path class="st1" d="M29,308.9c0.8-1.5,1.8-2.9,2.9-4.2c2.3-2.3,4.8-4.5,7.3-6.7c1.6-1.3,3.3-2.6,4.9-4.1c0.1-3.2-0.5-6.2-1.3-9.2
		c-0.3-1.6-0.8-3.1-1.1-4.7c-0.3-1.7-0.2-3.4,1.1-4.8l1-0.8c0.5-0.2,1.5,0.3,1.5,0.8c0.3,1.1,0.1,2.1-0.8,2.8
		c-1-0.4-0.3-1.1-0.6-1.5l-0.5,0.1c-1,1.6-0.8,3.1-0.5,4.7c0.3,1.3,0.7,2.3,1,3.6l1.6,7.4c0.5-0.2,1.1-0.3,1.5-0.6
		c3.7-3,7.4-5.9,11.2-8.7c0.4-0.5,1-0.8,1.6-1.1c0.5,0.6,0.3,0.9,0,1.3c-0.7,0.6-1.6,1.3-2.4,2c-4,3-7.9,6.1-11.9,9.3l-0.4,4.2
		c-0.2,2.6-0.9,5.2-1.8,7.8c-0.9,2-2,3.8-3.5,5.4c-2,2.1-4.5,3.2-7.4,3C29.1,314.7,27.4,312.2,29,308.9z M41,308.5
		c1.8-3.1,2.7-6.6,3.1-10l0.1-2.3c-0.6,0.2-1,0.1-1.1,0.3c-3.7,3-7.3,5.8-10.3,9.1c-0.9,1.1-1.7,2-2.2,3.1c-0.6,0.7-0.8,1.7-0.8,2.7
		c0,1.1,0.7,2,1.9,2.4c1.1,0.2,2.3,0.2,3.4,0C37.9,313,39.6,310.9,41,308.5z"/>
	<path class="st1" d="M55,293.2c0-0.3-0.1-0.6,0.1-1c1.1-5.1,2.8-9.8,7.1-13.3c1-0.9,2.3-1.4,3.7-1.5c2.4,0.1,4,1.7,4,4.1l-0.4,2.6
		c5-1,9.3-3.1,13.7-4.7c0.4,0.9,0,1.1-0.5,1.3c-3.6,1.3-7.3,2.7-10.9,3.9c-0.5,0.2-1.1,0.3-1.6,0.3c-1.3,0.3-2,0.9-2.7,2.1
		c-1.5,2.4-3.4,4.7-5.8,6.4c-0.9,0.7-2.1,1.5-3.2,2.1C56.4,296.4,55.1,295.4,55,293.2z M60,293.3c2.7-1.9,5-4.2,6.6-7.5
		c-1.3-0.2-2.4-0.2-3.5-0.8c-1.2-0.4-2.1-1.2-3.1-1.8c-2.7,3.7-4,7.7-3.6,11.3C58.6,294.2,58.6,294.4,60,293.3z M68.6,280.8
		c0-1.3-0.7-2-1.8-2.2c-2.1-0.4-4.7,1.3-5.1,3.4c-0.2,0.8,0.2,1.8,1,2c1.7,0.6,3.1,0.8,4.9,0.3C68.3,283.2,68.6,282.1,68.6,280.8z"
		/>
	<path class="st1" d="M77.1,292c0-0.3,0.2-0.8,0.4-1.2c2-5.7,4.6-11,7.8-16.1c0.1-0.3,0.4-0.5,0.9-1.1c0.2,0.5,0.6,0.7,0.4,0.9
		c-0.3,0.7-0.5,1.2-0.9,1.7c-1.6,3.4-3.3,6.8-4.9,10c-0.4,0.7-0.7,1.4-0.9,2c1,0.4,1.2-0.5,1.5-0.8c3-3.5,6.2-7.1,9.7-10.2
		c1-0.9,2.1-1.7,3.3-2.6l1.4-0.6c1.4-0.3,2.5,0.4,2.6,1.7c0.1,1,0,1.8-0.2,2.6c-0.3,2-0.7,3.9-1.1,5.9c-0.1,0.7,0,1.3-0.2,2.3
		c0.8-0.4,1.2-0.6,1.5-1c0.7-0.6,1.5-1.3,2-2c1-0.9,1.9-1.8,2.8-2.5c3-2.4,3.5-2.3,4.9,1.1c0.8,1.8,2.2,2.5,4.2,2
		c1.3-0.3,2.5-0.9,3.7-1.7c3-1.9,6-4,9-6.1c0.7-0.6,1.5-1.1,2.3-1.5c0.9,0.6,0.6,0.9,0.1,1.3c-1.6,1.1-3.1,2.3-4.6,3.4
		c-2.1,1.5-4.4,2.9-6.5,4.2c-1.3,0.9-2.7,1.4-4.5,1.6c-2.1,0.1-3.8-0.7-4.6-2.7c-0.4-0.6-0.6-1.2-0.9-2c-1.4,0.5-2.1,1.4-3,2.1
		l-4.7,4.4c-0.7,0.7-1.5,1.4-2.5,0.9c-0.7-0.9-0.5-2-0.5-3l1.3-6.2c0.2-1.1,0.6-2.2,0.2-3.1c-0.7-0.6-1.3-0.3-1.9,0
		c-1,0.9-2.2,1.7-3.3,2.6c-3.8,3.3-7.1,7.2-10.4,11.2l-3,3.2c-0.1,0.2-0.6,0.2-0.8,0.1C77.3,292.7,77.1,292.3,77.1,292z"/>
	<path class="st1" d="M126.9,284.8c-3.9,0.1-5.3-4.6-1.2-8.7c1.5-2.1,3.5-3.9,5.9-4.8c0.6-0.2,1.4-0.3,2.1-0.4
		c1.3,0.2,1.9,1.4,1.1,2.5c-0.6,0.7-1.5,1.4-2.2,2.2c-1.9,1.5-4.2,2.7-6.4,3.6c-0.8,0.2-1.4,0.6-1.6,1.5c-0.5,1.8,0.3,3,2.3,3.3
		c1.9,0.1,4.6-0.6,6.3-1.5c2-1,3.2-1.9,5-3.3l6.7-5.2c1.9-1.7,3.4-1,1.6,0.2c-3.4,2.8-5.8,4.6-9.4,7.3c-2.2,1.7-4.7,2.9-7.5,3.4
		C128.6,284.7,127.7,284.8,126.9,284.8z M131.6,274.6c0.9-0.7,1.8-1.2,2-2.5c-1.2-0.5-2.1,0.4-3,0.8c-1.8,1.2-2.8,2.2-3.7,4.3
		C128.7,276.7,130.2,275.6,131.6,274.6z"/>
	<path class="st1" d="M192.4,239.4c0,0.3,0.1,0.8,0,1.1c-0.8,1.2-2.7,2.1-4.9,2.6c0.6-0.7,0.9-1.1,1.3-1.4c0.4-0.4,0.9-0.6,1.2-0.9
		c-0.1-0.8-0.4-0.8-0.9-0.7l-5.1,0.5c-4.9,0.7-9.7,1.5-14.6,2c-1.4,0.3-2.5,0.9-3.3,2.1l-14.5,22.6c-0.7,0.9-1.4,1.6-2,2.5
		c-0.6,0.7-1.1,1.6-1.5,2.4c-3.4,7.6-6.3,15.5-8.8,23.3c-2.5,8-4.9,16.1-7.4,24.1c-0.1,0.5-0.2,0.8-0.6,1.7
		c-0.4-0.4-0.7-0.7-0.7-0.9c0.1-0.8,0.3-1.6,0.5-2.5c3.2-11,6.6-21.8,10.4-32.6c4.9-13.1,11.1-25.6,17.7-37.9l1.2-2.5
		c0.2,0,0-0.2-0.1-0.5c-3.2,0-6.5,0.8-9.7,1.5c-3.3,0.7-6.6,1.2-10.1,2l-9.6,2.5c-3,0.8-6.1,2.1-9.2,3.1c0-1.3,0.7-1.4,1-1.5
		c3.6-1.2,7-2.5,10.4-3.4c8.6-2.4,17.4-4.3,26.3-5.5c1.8-0.2,2.8-1.1,3.8-2.5c1.9-3.1,4-6.1,6.3-8.9c0.8-1.2,2.2-2.2,3.5-3.1
		c0.1-0.2,0.9-0.3,1.1-0.1c0.2,0.3,0.6,0.9,0.5,1.4c-0.2,0.8-0.8,1.7-1.2,2.5l-4.1,7c-0.3,0.5-0.5,1-0.8,1.5
		c0.7,0.7,1.5,0.5,2.3,0.2c4.9-0.5,9.8-1.4,14.9-2.1l3.5-0.4C190.2,238.8,191.4,238.7,192.4,239.4z M164.5,244.9
		c0.3-0.2,0.4-0.7,0.5-1.2c-1.5-0.3-2.6,0.1-3.2,1.5c-2.4,4.4-4.7,9-7.1,13.5c0,0-0.9,2.2-1.1,2.2c0.2,0.1,0.2,0.3,0.4,0.3
		c1.1-1.7,1-1.4,1.7-2.3L164.5,244.9L164.5,244.9z M167.1,240.8c1.8-3.1,3.7-6.2,5.4-9.4c0.1-0.2,0.1-0.5,0.1-0.8
		c-2.8,2.1-7.1,7.8-8.5,11.4C165.5,242.4,166.4,242,167.1,240.8z"/>
	<path class="st1" d="M147.4,293.7c0.1-0.8,0.5-1.7,0.7-2.5c2.8-5.9,5.5-12,8.2-18.1c2.2-5.1,4.8-9.8,7.3-14.8
		c4.1-8.2,9.1-15.8,14.6-23c2.5-3.5,5.3-6.7,8.5-9.6c1-0.9,2.1-1.7,3.3-2.4c1.7-0.8,3.3,0.3,2.8,2.1c-0.3,1.5-0.8,2.8-1.3,4.2
		c-3.4,7.6-8,14.4-13.3,20.7c-5.3,6-11,11.9-17,17.4c-1.3,1.3-2.5,2.7-3.1,4.4c-1.7,3.7-3.4,7.4-5.3,11c-0.3,0.7-0.5,1.2-0.8,1.7
		l0,0.3c0,0.2,0,0.3,0.1,0.5c0.2,0,0.1-0.2,0.1-0.2l0.7-0.9c0.7-0.7,1.1-1.4,1.9-2.3c1.6-1.6,3-3.4,4.8-5.2c1.6-1.5,4.7-2.9,6.1,0
		c0.4,0.8,0.7,1.7,0.9,2.6c0.4,1.1,0.9,2.2,1.5,3.2c0.8,1.2,2,1.7,3.4,1.3c1.1-0.3,2.2-0.7,3.2-1.5c1.2-0.8,2.4-1.5,3.6-2.6
		c4-3.3,7.8-6.8,11.8-10.3c0.6-0.5,1.2-1.1,1.9-1.6c0.5,0.3,0.6,0.7,0.3,1.1l-1.2,1.1c-4.1,3.7-8.2,7.3-12.5,11
		c-0.9,0.7-1.9,1.5-3.1,2.3l-2.1,1.2c-3.6,1.2-5.6,0.3-7.1-3.1c-0.4-1.1-0.7-2.3-1.3-3.6c-0.7-2.2-1.5-2.4-3.5-0.9
		c-1.6,1.3-3.3,2.8-4.5,4.5c-2.4,3.2-4.5,6.4-6.7,9.7c-0.5,1-1.1,1.9-1.6,2.7c-0.1,0.2-0.6,0.2-0.9,0.3
		C147.5,294.3,147.3,293.9,147.4,293.7z M163.5,264.2c5.1-4.9,9.9-10.1,14.5-15.4c3-3.5,5.7-7.2,8-11.1c1.8-3.1,3.2-6.3,4.8-9.4
		c0.5-1.2,1-2.4,0.9-4c-1.8,0-2.8,1.1-3.7,2c-2.2,2.2-4.5,4.5-6.5,7c-7.7,9.5-14,19.8-19.3,30.8c-0.3,0.4-0.6,0.7,0,1.3
		C162.6,264.9,163,264.5,163.5,264.2z"/>
	<path class="st1" d="M189.5,275.9l0.3-2c0.5-3,1.6-5.8,3.1-8.4l0.9-0.9c0.2,0,0.5-0.1,0.7,0.1c0.2,0.1,0.2,0.5,0.2,0.6l-0.7,1
		c-1.5,2.6-2.6,5.4-3.1,8.4c-0.5,3.3,0.9,4.4,4.1,3.6c2.2-0.7,4-1.9,5.8-3.3c3.1-2.4,6.1-5,9.2-7.6c0.6-0.4,1.2-0.9,2-1.3
		c0.2,0.1,0.2,0.3,0.4,0.6c-4,3.3-7.8,6.9-10,8.6c-1.6,1.3-3.3,2.3-5.1,3.3c-1.1,0.4-2.5,0.7-3.6,0.9
		C191,279.8,189.6,278.1,189.5,275.9z M197,257.4c0.1-0.3,0.6-0.5,0.9-0.3c0.2,0.3,0.3,0.9,0.1,1.1c-0.4,0.7-0.5,1.7-2.1,1.5
		C196.4,258.8,196.6,258.1,197,257.4z"/>
	<path class="st1" d="M206.4,277c0.2-0.8,0.5-1.7,0.9-2.5l8.3-17.3c0.1-0.3,0.3-0.7,0.4-1c1.3,0.3,1.4,0.8,1,1.5
		c-2.9,5-5.2,10.2-7.7,15.5c-0.1,0.2-0.1,0.5-0.1,0.8c0.8,0.2,1.1-0.4,1.5-0.8l7.7-7.6c1-0.9,2.1-1.5,3.1-2.3
		c0.7-0.6,1.6-1.1,2.5-0.6c1,0.7,1.1,1.7,1.1,2.6l-0.2,2.4c-0.1,0.7,0,1.1-0.2,1.6c0,3.2,1.4,4.2,4.5,3.1c1.4-0.5,2.8-1.3,4-2
		c3.5-2.3,6.9-4.8,10.2-7.2c0.6-0.2,1.1-0.6,1.5-1c0.7,0.4,0.6,0.7,0.3,1.1c-0.1,0.2-0.4,0.5-0.7,0.6c-4,2.8-7.9,5.7-12,8.3
		c-1.3,0.9-2.7,1.4-4.2,1.6c-2.9,0.1-4.3-0.8-4.6-3.7c-0.1-1.3,0-2.7,0.1-4c0.1-0.8,0-1.4-0.1-2.4c-0.8,0.2-1.4,0.3-1.9,0.7
		c-1.3,1.1-2.7,2.1-4,3.3l-8.3,8.3c-0.7,0.7-1.4,1.6-2.2,2.2C206.3,278,206.2,277.5,206.4,277z"/>
	<path class="st1" d="M235.2,318.6c-0.1-1.1-0.1-2.4,0.3-3.4c0.7-2.2,1.6-4.5,2.5-6.5c2.1-4.4,4.9-8.2,7.9-12.1
		c4.6-5.6,9.6-11.2,14.9-16.2c1.4-1.6,2.4-3.2,2.5-5.4c0.1-4,0.4-8.1-0.9-12c-0.3-0.9-0.5-1.9-1.1-2.6c-0.6-1.1-1.6-1.4-2.7-0.8
		c-0.9,0.4-1.8,1.2-2.5,1.9c-1.5,1.3-2.6,2.7-3.9,4.1c-1.4,1.6-2.7,3-4.2,4.5c-0.7,0.7-1.5,1.3-2.4,1.7c-1.2,0.6-2.7,0-3-1.3
		c-0.1-1.1-0.2-2.2,0-3.2c0.4-1.2,0.9-2.3,1.6-3.5c1.9-3.3,4.9-5.5,8.5-6.8c0.9-0.4,1.9-0.5,2.8-0.6c0.7,0.1,1.6,0.3,1.9,0.8
		c0.8,1,1.6,1.3,2.7,1.3c1.1,0,2,0.9,2.4,1.8c0.6,1.1,1,2.3,1.3,3.6c0.8,3.5,0.9,7,0.8,10.5c-0.1,0.5,0,1.1,0.1,2.1l2.7-2.2
		c5-4.6,10-9.1,15-13.7c0.7-0.6,1.6-1.3,2.5-1.9c0.1-0.2,0.5-0.1,0.8-0.1c0.1,1.1-0.7,1.4-1.3,1.7l-16.6,15.1
		c-0.7,0.7-1.5,1.4-2.3,2.2c-0.9,0.7-1.4,1.8-1.6,3.1c-1.6,9.5-5.1,18.4-9.6,26.9c-1.8,3.2-3.7,6.2-6.1,9c-1.4,1.6-2.9,3.2-4.9,4.2
		c-1.2,0.6-2.4,1.2-3.9,1.4C237.1,322.4,235.3,321,235.2,318.6z M244.5,318.2c2.1-1.8,3.8-3.9,5.3-6.4c6-9,10.1-18.9,12.3-29.5
		c0.1-0.5,0.1-0.8,0.2-1.6c-0.6,0.4-1.1,0.6-1.2,0.9c-5.5,5.6-10.9,11.3-15.5,17.4c-2.4,3.2-4.6,6.4-6.3,10
		c-0.8,1.7-1.6,3.4-2.2,5.2c-0.4,1.2-0.6,2.3-0.6,3.4c-0.2,2.8,1,3.8,3.7,3C241.8,320.3,243.2,319.3,244.5,318.2z M245.6,270.3
		c0.7-0.6,1.5-1.1,2.2-1.8c3-3.4,6-6.8,9.2-10.1c-0.3-1.3-1.2-1.2-2.2-1.1c-4.6,0.5-10.3,5.8-11.1,10.3c-0.2,1-0.4,2.1,0.5,3.2
		C244.6,270.6,245.1,270.5,245.6,270.3z"/>
	<path class="st1" d="M318.3,309.8c-0.1-1.1-0.1-2.4,0.3-3.4c0.7-2.2,1.6-4.5,2.5-6.5c2.1-4.4,4.9-8.2,7.9-12.1
		c4.6-5.6,9.6-11.2,14.9-16.2c1.4-1.6,2.4-3.2,2.5-5.4c0.1-4,0.4-8.1-0.9-12c-0.3-0.9-0.5-1.9-1.1-2.6c-0.6-1.1-1.6-1.4-2.7-0.8
		c-0.9,0.4-1.8,1.2-2.5,1.9c-1.5,1.3-2.6,2.7-3.9,4.1c-1.4,1.6-2.7,3-4.2,4.5c-0.7,0.7-1.5,1.3-2.4,1.7c-1.2,0.6-2.7,0-3-1.3
		c-0.1-1.1-0.2-2.2,0-3.2c0.4-1.2,0.9-2.3,1.6-3.5c1.9-3.3,4.9-5.5,8.5-6.8c0.9-0.4,1.9-0.5,2.8-0.6c0.7,0.1,1.6,0.3,1.9,0.8
		c0.8,1,1.6,1.3,2.7,1.3c1.1,0,2,0.9,2.4,1.8c0.6,1.1,1,2.3,1.3,3.6c0.8,3.5,0.9,7,0.8,10.5c-0.1,0.5,0,1.1,0.1,2.1l2.7-2.2
		c5-4.6,10-9.1,15-13.7c0.7-0.6,1.6-1.3,2.5-1.9c0.1-0.2,0.5-0.1,0.8-0.1c0.1,1.1-0.7,1.4-1.3,1.7l-16.6,15.1
		c-0.7,0.7-1.5,1.4-2.3,2.2c-0.9,0.7-1.4,1.8-1.6,3.1c-1.6,9.5-5.1,18.4-9.6,26.9c-1.8,3.2-3.7,6.2-6.1,9c-1.4,1.6-2.9,3.2-4.9,4.2
		c-1.2,0.6-2.4,1.2-3.9,1.4C320.2,313.6,318.4,312.2,318.3,309.8z M327.6,309.5c2.1-1.8,3.8-3.9,5.3-6.4c6-9,10.1-18.9,12.3-29.5
		c0.1-0.5,0.1-0.8,0.2-1.6c-0.6,0.4-1.1,0.6-1.2,0.9c-5.5,5.6-10.9,11.3-15.5,17.4c-2.4,3.2-4.6,6.4-6.3,10
		c-0.8,1.7-1.6,3.4-2.2,5.2c-0.4,1.2-0.6,2.3-0.6,3.4c-0.2,2.8,1,3.8,3.7,3C324.9,311.5,326.3,310.6,327.6,309.5z M328.7,261.5
		c0.7-0.6,1.5-1.1,2.2-1.8c3-3.4,6-6.8,9.2-10.2c-0.3-1.3-1.2-1.2-2.2-1.1c-4.6,0.5-10.3,5.8-11.1,10.3c-0.2,1-0.4,2.1,0.5,3.2
		C327.7,261.8,328.2,261.7,328.7,261.5z"/>
	<path class="st1" d="M362.4,263.5c-0.2,0-0.4-0.3-0.4-0.4c0.1-0.5,0.1-0.8,0.3-1.3c2.5-5.4,5-11,7.4-16.6c0.4-0.5,0.7-1.4,1.5-1.4
		c0.2,0,0.2,0.1,0.3,0.1l0,0.3c-2,4.4-3.9,8.6-6,13c1,0.4,1.1-0.3,1.4-0.6l6.5-7.1c1.2-1.1,2.5-1.9,3.9-2.7c2-1,3.1-0.8,4.6,0.8
		l0.5,0.4c1.7,2.4,4,2.6,6.5,1.7c2.3-0.7,4.3-1.7,6.5-2.8c0.5,0,0.8-0.2,1.1-0.3c0.7,0.6,0.3,0.9,0,1.1c-2.4,1.4-5.1,2.5-7.7,3.1
		c-2.8,0.6-5.3,0.1-7.2-2.3c-1.2-1.8-2.4-1.8-4.1-0.5c-1.6,1.1-3.3,2.3-4.8,3.7c-2.7,3.2-5.3,6.5-7.8,9.7l-2,2.1
		C362.8,263.6,362.5,263.6,362.4,263.5z"/>
	<path class="st1" d="M396,256.4c-3.9,0.1-5.3-4.6-1.2-8.7c1.5-2.1,3.5-3.9,5.9-4.8c0.6-0.2,1.4-0.3,2.1-0.4
		c1.3,0.2,1.9,1.4,1.1,2.5c-0.6,0.7-1.5,1.4-2.2,2.2c-1.9,1.5-4.2,2.7-6.4,3.6c-0.8,0.2-1.4,0.6-1.6,1.5c-0.5,1.8,0.3,3,2.3,3.3
		c1.9,0.1,4.6-0.6,6.3-1.5c2-1,3.2-1.9,5-3.3l6.7-5.2c1.9-1.7,3.4-1,1.6,0.2c-3.4,2.8-5.8,4.6-9.4,7.3c-2.2,1.7-4.7,2.9-7.5,3.4
		C397.8,256.3,396.9,256.4,396,256.4z M400.8,246.2c0.9-0.7,1.8-1.2,2-2.5c-1.2-0.5-2.1,0.4-3,0.8c-1.8,1.2-2.8,2.2-3.7,4.3
		C397.9,248.3,399.4,247.1,400.8,246.2z"/>
	<path class="st1" d="M409.2,253.4c0.2-0.8,0.5-1.7,0.9-2.3c2.5-4.1,6-7.6,10.2-9.8c1.1-0.4,2.3-0.9,3.4-1c1.8-0.2,2.9,1.6,2.3,3.3
		l-1.9,4.7c-0.4,1.2-0.7,2.3,0.4,3.3c1.6,1.3,7.4-1.7,14.4-5.9c2.1-1.3,4.1-2.4,6.4-3.6c1.5-0.8,4.2-1.4,1.6,0
		c-3.9,2.3-8,4.9-12.1,7.1c-4,2.2-7,3.8-9.8,3.6c-1.3-0.2-2.2-1.2-2.2-2.7c-0.1-0.8,0.1-1.6,0.2-2.6c-0.8-0.2-1.2,0.5-1.5,0.8
		c-2.4,2-4.7,4-7.5,5.5c-0.9,0.4-2,1-2.9,1.3C409.9,255.4,409,254.5,409.2,253.4z M425.1,241.9c-0.6-0.9-1.5-0.6-2.3-0.4
		c-5.4,2.3-9.5,6.2-12.2,11.3c-0.1,0.3,0.1,0.6,0.1,1.3C416.3,251.6,423.4,245.6,425.1,241.9z"/>
	<path class="st1" d="M493.1,207.6c0,0.3,0.1,0.8,0,1.1c-0.8,1.2-2.7,2.1-4.9,2.6c0.6-0.7,0.9-1.1,1.3-1.4c0.4-0.4,0.9-0.6,1.2-0.9
		c-0.1-0.8-0.4-0.8-0.9-0.7l-5.1,0.5c-4.9,0.7-9.7,1.5-14.6,2c-1.4,0.3-2.5,0.9-3.3,2.1l-14.5,22.6c-0.7,0.9-1.4,1.6-2,2.5
		c-0.6,0.7-1.1,1.6-1.5,2.4c-3.4,7.6-6.3,15.5-8.8,23.3c-2.5,8-4.9,16.1-7.4,24.1c-0.1,0.5-0.2,0.8-0.6,1.7
		c-0.4-0.4-0.7-0.7-0.7-0.9c0.1-0.8,0.3-1.6,0.5-2.5c3.2-11,6.6-21.8,10.4-32.6c4.9-13.1,11.1-25.6,17.7-37.9l1.2-2.5
		c0.2,0,0-0.2-0.1-0.5c-3.2,0-6.5,0.8-9.7,1.5c-3.3,0.7-6.6,1.2-10.1,2l-9.6,2.5c-3,0.8-6.1,2.1-9.2,3.1c0-1.3,0.7-1.4,1-1.5
		c3.6-1.2,7-2.5,10.4-3.4c8.6-2.4,17.4-4.3,26.3-5.5c1.8-0.2,2.8-1.1,3.8-2.5c1.9-3.1,4-6.1,6.3-8.9c0.8-1.2,2.2-2.2,3.5-3.1
		c0.1-0.2,0.9-0.3,1.1-0.1c0.2,0.3,0.6,0.9,0.5,1.4c-0.2,0.8-0.8,1.7-1.2,2.5l-4.1,7c-0.3,0.5-0.5,1-0.8,1.5
		c0.7,0.7,1.5,0.5,2.3,0.2c4.9-0.5,9.8-1.4,14.9-2.1l3.5-0.4C491,207.1,492.1,206.9,493.1,207.6z M465.2,213.2
		c0.3-0.2,0.4-0.7,0.5-1.2c-1.5-0.3-2.6,0.1-3.2,1.5c-2.4,4.4-4.7,9-7.1,13.5c0,0-0.9,2.2-1.1,2.2c0.2,0.1,0.2,0.3,0.4,0.3
		c1.1-1.7,1-1.4,1.7-2.3L465.2,213.2L465.2,213.2z M467.8,209c1.8-3.1,3.7-6.2,5.4-9.4c0.1-0.2,0.1-0.5,0.1-0.8
		c-2.8,2.1-7.1,7.8-8.5,11.4C466.2,210.6,467.2,210.2,467.8,209z"/>
	<path class="st1" d="M500.8,242.2c0-0.5-0.1-1.3,0.1-1.8c0.1-0.3,0.6-0.5,0.9-0.7l0.6,0.9c0.2,0.1,0,0.2,0.1,0.6
		c0,0.2,0.1,0.8-0.2,1.3c-0.1,0.3-0.4,0.7-0.7,0.9C501.3,243.6,500.7,243.1,500.8,242.2z M506.1,217.5c5.2-17.8,14.4-39,18.8-43.5
		c0.2,0.3,0.4,0.6,0.4,0.8c-0.1,0.5-0.4,0.8-0.7,1.2c-7.2,12.2-12.1,25.3-16.4,38.7c-1.7,5.3-2.9,10.8-4.4,16.1
		c-0.3,0.7,0,1.4-1.1,1.7C502.3,230.7,502.5,229.5,506.1,217.5z"/>
</g>
<g class="st0">
	<path class="st2" d="M29,308.9c0.8-1.5,1.8-2.9,2.9-4.2c2.3-2.3,4.8-4.5,7.3-6.7c1.6-1.3,3.3-2.6,4.9-4.1c0.1-3.2-0.5-6.2-1.3-9.2
		c-0.3-1.6-0.8-3.1-1.1-4.7c-0.3-1.7-0.2-3.4,1.1-4.8l1-0.8c0.5-0.2,1.5,0.3,1.5,0.8c0.3,1.1,0.1,2.1-0.8,2.8
		c-1-0.4-0.3-1.1-0.6-1.5l-0.5,0.1c-1,1.6-0.8,3.1-0.5,4.7c0.3,1.3,0.7,2.3,1,3.6l1.6,7.4c0.5-0.2,1.1-0.3,1.5-0.6
		c3.7-3,7.4-5.9,11.2-8.7c0.4-0.5,1-0.8,1.6-1.1c0.5,0.6,0.3,0.9,0,1.3c-0.7,0.6-1.6,1.3-2.4,2c-4,3-7.9,6.1-11.9,9.3l-0.4,4.2
		c-0.2,2.6-0.9,5.2-1.8,7.8c-0.9,2-2,3.8-3.5,5.4c-2,2.1-4.5,3.2-7.4,3C29.1,314.7,27.4,312.2,29,308.9z M41,308.5
		c1.8-3.1,2.7-6.6,3.1-10l0.1-2.3c-0.6,0.2-1,0.1-1.1,0.3c-3.7,3-7.3,5.8-10.3,9.1c-0.9,1.1-1.7,2-2.2,3.1c-0.6,0.7-0.8,1.7-0.8,2.7
		c0,1.1,0.7,2,1.9,2.4c1.1,0.2,2.3,0.2,3.4,0C37.9,313,39.6,310.9,41,308.5z"/>
	<path class="st2" d="M55,293.2c0-0.3-0.1-0.6,0.1-1c1.1-5.1,2.8-9.8,7.1-13.3c1-0.9,2.3-1.4,3.7-1.5c2.4,0.1,4,1.7,4,4.1l-0.4,2.6
		c5-1,9.3-3.1,13.7-4.7c0.4,0.9,0,1.1-0.5,1.3c-3.6,1.3-7.3,2.7-10.9,3.9c-0.5,0.2-1.1,0.3-1.6,0.3c-1.3,0.3-2,0.9-2.7,2.1
		c-1.5,2.4-3.4,4.7-5.8,6.4c-0.9,0.7-2.1,1.5-3.2,2.1C56.4,296.4,55.1,295.4,55,293.2z M60,293.3c2.7-1.9,5-4.2,6.6-7.5
		c-1.3-0.2-2.4-0.2-3.5-0.8c-1.2-0.4-2.1-1.2-3.1-1.8c-2.7,3.7-4,7.7-3.6,11.3C58.6,294.2,58.6,294.4,60,293.3z M68.6,280.8
		c0-1.3-0.7-2-1.8-2.2c-2.1-0.4-4.7,1.3-5.1,3.4c-0.2,0.8,0.2,1.8,1,2c1.7,0.6,3.1,0.8,4.9,0.3C68.3,283.2,68.6,282.1,68.6,280.8z"
		/>
	<path class="st2" d="M77.1,292c0-0.3,0.2-0.8,0.4-1.2c2-5.7,4.6-11,7.8-16.1c0.1-0.3,0.4-0.5,0.9-1.1c0.2,0.5,0.6,0.7,0.4,0.9
		c-0.3,0.7-0.5,1.2-0.9,1.7c-1.6,3.4-3.3,6.8-4.9,10c-0.4,0.7-0.7,1.4-0.9,2c1,0.4,1.2-0.5,1.5-0.8c3-3.5,6.2-7.1,9.7-10.2
		c1-0.9,2.1-1.7,3.3-2.6l1.4-0.6c1.4-0.3,2.5,0.4,2.6,1.7c0.1,1,0,1.8-0.2,2.6c-0.3,2-0.7,3.9-1.1,5.9c-0.1,0.7,0,1.3-0.2,2.3
		c0.8-0.4,1.2-0.6,1.5-1c0.7-0.6,1.5-1.3,2-2c1-0.9,1.9-1.8,2.8-2.5c3-2.4,3.5-2.3,4.9,1.1c0.8,1.8,2.2,2.5,4.2,2
		c1.3-0.3,2.5-0.9,3.7-1.7c3-1.9,6-4,9-6.1c0.7-0.6,1.5-1.1,2.3-1.5c0.9,0.6,0.6,0.9,0.1,1.3c-1.6,1.1-3.1,2.3-4.6,3.4
		c-2.1,1.5-4.4,2.9-6.5,4.2c-1.3,0.9-2.7,1.4-4.5,1.6c-2.1,0.1-3.8-0.7-4.6-2.7c-0.4-0.6-0.6-1.2-0.9-2c-1.4,0.5-2.1,1.4-3,2.1
		l-4.7,4.4c-0.7,0.7-1.5,1.4-2.5,0.9c-0.7-0.9-0.5-2-0.5-3l1.3-6.2c0.2-1.1,0.6-2.2,0.2-3.1c-0.7-0.6-1.3-0.3-1.9,0
		c-1,0.9-2.2,1.7-3.3,2.6c-3.8,3.3-7.1,7.2-10.4,11.2l-3,3.2c-0.1,0.2-0.6,0.2-0.8,0.1C77.3,292.7,77.1,292.3,77.1,292z"/>
	<path class="st2" d="M126.9,284.8c-3.9,0.1-5.3-4.6-1.2-8.7c1.5-2.1,3.5-3.9,5.9-4.8c0.6-0.2,1.4-0.3,2.1-0.4
		c1.3,0.2,1.9,1.4,1.1,2.5c-0.6,0.7-1.5,1.4-2.2,2.2c-1.9,1.5-4.2,2.7-6.4,3.6c-0.8,0.2-1.4,0.6-1.6,1.5c-0.5,1.8,0.3,3,2.3,3.3
		c1.9,0.1,4.6-0.6,6.3-1.5c2-1,3.2-1.9,5-3.3l6.7-5.2c1.9-1.7,3.4-1,1.6,0.2c-3.4,2.8-5.8,4.6-9.4,7.3c-2.2,1.7-4.7,2.9-7.5,3.4
		C128.6,284.7,127.7,284.8,126.9,284.8z M131.6,274.6c0.9-0.7,1.8-1.2,2-2.5c-1.2-0.5-2.1,0.4-3,0.8c-1.8,1.2-2.8,2.2-3.7,4.3
		C128.7,276.7,130.2,275.6,131.6,274.6z"/>
	<path class="st2" d="M192.4,239.4c0,0.3,0.1,0.8,0,1.1c-0.8,1.2-2.7,2.1-4.9,2.6c0.6-0.7,0.9-1.1,1.3-1.4c0.4-0.4,0.9-0.6,1.2-0.9
		c-0.1-0.8-0.4-0.8-0.9-0.7l-5.1,0.5c-4.9,0.7-9.7,1.5-14.6,2c-1.4,0.3-2.5,0.9-3.3,2.1l-14.5,22.6c-0.7,0.9-1.4,1.6-2,2.5
		c-0.6,0.7-1.1,1.6-1.5,2.4c-3.4,7.6-6.3,15.5-8.8,23.3c-2.5,8-4.9,16.1-7.4,24.1c-0.1,0.5-0.2,0.8-0.6,1.7
		c-0.4-0.4-0.7-0.7-0.7-0.9c0.1-0.8,0.3-1.6,0.5-2.5c3.2-11,6.6-21.8,10.4-32.6c4.9-13.1,11.1-25.6,17.7-37.9l1.2-2.5
		c0.2,0,0-0.2-0.1-0.5c-3.2,0-6.5,0.8-9.7,1.5c-3.3,0.7-6.6,1.2-10.1,2l-9.6,2.5c-3,0.8-6.1,2.1-9.2,3.1c0-1.3,0.7-1.4,1-1.5
		c3.6-1.2,7-2.5,10.4-3.4c8.6-2.4,17.4-4.3,26.3-5.5c1.8-0.2,2.8-1.1,3.8-2.5c1.9-3.1,4-6.1,6.3-8.9c0.8-1.2,2.2-2.2,3.5-3.1
		c0.1-0.2,0.9-0.3,1.1-0.1c0.2,0.3,0.6,0.9,0.5,1.4c-0.2,0.8-0.8,1.7-1.2,2.5l-4.1,7c-0.3,0.5-0.5,1-0.8,1.5
		c0.7,0.7,1.5,0.5,2.3,0.2c4.9-0.5,9.8-1.4,14.9-2.1l3.5-0.4C190.2,238.8,191.4,238.7,192.4,239.4z M164.5,244.9
		c0.3-0.2,0.4-0.7,0.5-1.2c-1.5-0.3-2.6,0.1-3.2,1.5c-2.4,4.4-4.7,9-7.1,13.5c0,0-0.9,2.2-1.1,2.2c0.2,0.1,0.2,0.3,0.4,0.3
		c1.1-1.7,1-1.4,1.7-2.3L164.5,244.9L164.5,244.9z M167.1,240.8c1.8-3.1,3.7-6.2,5.4-9.4c0.1-0.2,0.1-0.5,0.1-0.8
		c-2.8,2.1-7.1,7.8-8.5,11.4C165.5,242.4,166.4,242,167.1,240.8z"/>
	<path class="st2" d="M147.4,293.7c0.1-0.8,0.5-1.7,0.7-2.5c2.8-5.9,5.5-12,8.2-18.1c2.2-5.1,4.8-9.8,7.3-14.8
		c4.1-8.2,9.1-15.8,14.6-23c2.5-3.5,5.3-6.7,8.5-9.6c1-0.9,2.1-1.7,3.3-2.4c1.7-0.8,3.3,0.3,2.8,2.1c-0.3,1.5-0.8,2.8-1.3,4.2
		c-3.4,7.6-8,14.4-13.3,20.7c-5.3,6-11,11.9-17,17.4c-1.3,1.3-2.5,2.7-3.1,4.4c-1.7,3.7-3.4,7.4-5.3,11c-0.3,0.7-0.5,1.2-0.8,1.7
		l0,0.3c0,0.2,0,0.3,0.1,0.5c0.2,0,0.1-0.2,0.1-0.2l0.7-0.9c0.7-0.7,1.1-1.4,1.9-2.3c1.6-1.6,3-3.4,4.8-5.2c1.6-1.5,4.7-2.9,6.1,0
		c0.4,0.8,0.7,1.7,0.9,2.6c0.4,1.1,0.9,2.2,1.5,3.2c0.8,1.2,2,1.7,3.4,1.3c1.1-0.3,2.2-0.7,3.2-1.5c1.2-0.8,2.4-1.5,3.6-2.6
		c4-3.3,7.8-6.8,11.8-10.3c0.6-0.5,1.2-1.1,1.9-1.6c0.5,0.3,0.6,0.7,0.3,1.1l-1.2,1.1c-4.1,3.7-8.2,7.3-12.5,11
		c-0.9,0.7-1.9,1.5-3.1,2.3l-2.1,1.2c-3.6,1.2-5.6,0.3-7.1-3.1c-0.4-1.1-0.7-2.3-1.3-3.6c-0.7-2.2-1.5-2.4-3.5-0.9
		c-1.6,1.3-3.3,2.8-4.5,4.5c-2.4,3.2-4.5,6.4-6.7,9.7c-0.5,1-1.1,1.9-1.6,2.7c-0.1,0.2-0.6,0.2-0.9,0.3
		C147.5,294.3,147.3,293.9,147.4,293.7z M163.5,264.2c5.1-4.9,9.9-10.1,14.5-15.4c3-3.5,5.7-7.2,8-11.1c1.8-3.1,3.2-6.3,4.8-9.4
		c0.5-1.2,1-2.4,0.9-4c-1.8,0-2.8,1.1-3.7,2c-2.2,2.2-4.5,4.5-6.5,7c-7.7,9.5-14,19.8-19.3,30.8c-0.3,0.4-0.6,0.7,0,1.3
		C162.6,264.9,163,264.5,163.5,264.2z"/>
	<path class="st2" d="M189.5,275.9l0.3-2c0.5-3,1.6-5.8,3.1-8.4l0.9-0.9c0.2,0,0.5-0.1,0.7,0.1c0.2,0.1,0.2,0.5,0.2,0.6l-0.7,1
		c-1.5,2.6-2.6,5.4-3.1,8.4c-0.5,3.3,0.9,4.4,4.1,3.6c2.2-0.7,4-1.9,5.8-3.3c3.1-2.4,6.1-5,9.2-7.6c0.6-0.4,1.2-0.9,2-1.3
		c0.2,0.1,0.2,0.3,0.4,0.6c-4,3.3-7.8,6.9-10,8.6c-1.6,1.3-3.3,2.3-5.1,3.3c-1.1,0.4-2.5,0.7-3.6,0.9
		C191,279.8,189.6,278.1,189.5,275.9z M197,257.4c0.1-0.3,0.6-0.5,0.9-0.3c0.2,0.3,0.3,0.9,0.1,1.1c-0.4,0.7-0.5,1.7-2.1,1.5
		C196.4,258.8,196.6,258.1,197,257.4z"/>
	<path class="st2" d="M206.4,277c0.2-0.8,0.5-1.7,0.9-2.5l8.3-17.3c0.1-0.3,0.3-0.7,0.4-1c1.3,0.3,1.4,0.8,1,1.5
		c-2.9,5-5.2,10.2-7.7,15.5c-0.1,0.2-0.1,0.5-0.1,0.8c0.8,0.2,1.1-0.4,1.5-0.8l7.7-7.6c1-0.9,2.1-1.5,3.1-2.3
		c0.7-0.6,1.6-1.1,2.5-0.6c1,0.7,1.1,1.7,1.1,2.6l-0.2,2.4c-0.1,0.7,0,1.1-0.2,1.6c0,3.2,1.4,4.2,4.5,3.1c1.4-0.5,2.8-1.3,4-2
		c3.5-2.3,6.9-4.8,10.2-7.2c0.6-0.2,1.1-0.6,1.5-1c0.7,0.4,0.6,0.7,0.3,1.1c-0.1,0.2-0.4,0.5-0.7,0.6c-4,2.8-7.9,5.7-12,8.3
		c-1.3,0.9-2.7,1.4-4.2,1.6c-2.9,0.1-4.3-0.8-4.6-3.7c-0.1-1.3,0-2.7,0.1-4c0.1-0.8,0-1.4-0.1-2.4c-0.8,0.2-1.4,0.3-1.9,0.7
		c-1.3,1.1-2.7,2.1-4,3.3l-8.3,8.3c-0.7,0.7-1.4,1.6-2.2,2.2C206.3,278,206.2,277.5,206.4,277z"/>
	<path class="st2" d="M235.2,318.6c-0.1-1.1-0.1-2.4,0.3-3.4c0.7-2.2,1.6-4.5,2.5-6.5c2.1-4.4,4.9-8.2,7.9-12.1
		c4.6-5.6,9.6-11.2,14.9-16.2c1.4-1.6,2.4-3.2,2.5-5.4c0.1-4,0.4-8.1-0.9-12c-0.3-0.9-0.5-1.9-1.1-2.6c-0.6-1.1-1.6-1.4-2.7-0.8
		c-0.9,0.4-1.8,1.2-2.5,1.9c-1.5,1.3-2.6,2.7-3.9,4.1c-1.4,1.6-2.7,3-4.2,4.5c-0.7,0.7-1.5,1.3-2.4,1.7c-1.2,0.6-2.7,0-3-1.3
		c-0.1-1.1-0.2-2.2,0-3.2c0.4-1.2,0.9-2.3,1.6-3.5c1.9-3.3,4.9-5.5,8.5-6.8c0.9-0.4,1.9-0.5,2.8-0.6c0.7,0.1,1.6,0.3,1.9,0.8
		c0.8,1,1.6,1.3,2.7,1.3c1.1,0,2,0.9,2.4,1.8c0.6,1.1,1,2.3,1.3,3.6c0.8,3.5,0.9,7,0.8,10.5c-0.1,0.5,0,1.1,0.1,2.1l2.7-2.2
		c5-4.6,10-9.1,15-13.7c0.7-0.6,1.6-1.3,2.5-1.9c0.1-0.2,0.5-0.1,0.8-0.1c0.1,1.1-0.7,1.4-1.3,1.7l-16.6,15.1
		c-0.7,0.7-1.5,1.4-2.3,2.2c-0.9,0.7-1.4,1.8-1.6,3.1c-1.6,9.5-5.1,18.4-9.6,26.9c-1.8,3.2-3.7,6.2-6.1,9c-1.4,1.6-2.9,3.2-4.9,4.2
		c-1.2,0.6-2.4,1.2-3.9,1.4C237.1,322.4,235.3,321,235.2,318.6z M244.5,318.2c2.1-1.8,3.8-3.9,5.3-6.4c6-9,10.1-18.9,12.3-29.5
		c0.1-0.5,0.1-0.8,0.2-1.6c-0.6,0.4-1.1,0.6-1.2,0.9c-5.5,5.6-10.9,11.3-15.5,17.4c-2.4,3.2-4.6,6.4-6.3,10
		c-0.8,1.7-1.6,3.4-2.2,5.2c-0.4,1.2-0.6,2.3-0.6,3.4c-0.2,2.8,1,3.8,3.7,3C241.8,320.3,243.2,319.3,244.5,318.2z M245.6,270.3
		c0.7-0.6,1.5-1.1,2.2-1.8c3-3.4,6-6.8,9.2-10.1c-0.3-1.3-1.2-1.2-2.2-1.1c-4.6,0.5-10.3,5.8-11.1,10.3c-0.2,1-0.4,2.1,0.5,3.2
		C244.6,270.6,245.1,270.5,245.6,270.3z"/>
	<path class="st2" d="M318.3,309.8c-0.1-1.1-0.1-2.4,0.3-3.4c0.7-2.2,1.6-4.5,2.5-6.5c2.1-4.4,4.9-8.2,7.9-12.1
		c4.6-5.6,9.6-11.2,14.9-16.2c1.4-1.6,2.4-3.2,2.5-5.4c0.1-4,0.4-8.1-0.9-12c-0.3-0.9-0.5-1.9-1.1-2.6c-0.6-1.1-1.6-1.4-2.7-0.8
		c-0.9,0.4-1.8,1.2-2.5,1.9c-1.5,1.3-2.6,2.7-3.9,4.1c-1.4,1.6-2.7,3-4.2,4.5c-0.7,0.7-1.5,1.3-2.4,1.7c-1.2,0.6-2.7,0-3-1.3
		c-0.1-1.1-0.2-2.2,0-3.2c0.4-1.2,0.9-2.3,1.6-3.5c1.9-3.3,4.9-5.5,8.5-6.8c0.9-0.4,1.9-0.5,2.8-0.6c0.7,0.1,1.6,0.3,1.9,0.8
		c0.8,1,1.6,1.3,2.7,1.3c1.1,0,2,0.9,2.4,1.8c0.6,1.1,1,2.3,1.3,3.6c0.8,3.5,0.9,7,0.8,10.5c-0.1,0.5,0,1.1,0.1,2.1l2.7-2.2
		c5-4.6,10-9.1,15-13.7c0.7-0.6,1.6-1.3,2.5-1.9c0.1-0.2,0.5-0.1,0.8-0.1c0.1,1.1-0.7,1.4-1.3,1.7l-16.6,15.1
		c-0.7,0.7-1.5,1.4-2.3,2.2c-0.9,0.7-1.4,1.8-1.6,3.1c-1.6,9.5-5.1,18.4-9.6,26.9c-1.8,3.2-3.7,6.2-6.1,9c-1.4,1.6-2.9,3.2-4.9,4.2
		c-1.2,0.6-2.4,1.2-3.9,1.4C320.2,313.6,318.4,312.2,318.3,309.8z M327.6,309.5c2.1-1.8,3.8-3.9,5.3-6.4c6-9,10.1-18.9,12.3-29.5
		c0.1-0.5,0.1-0.8,0.2-1.6c-0.6,0.4-1.1,0.6-1.2,0.9c-5.5,5.6-10.9,11.3-15.5,17.4c-2.4,3.2-4.6,6.4-6.3,10
		c-0.8,1.7-1.6,3.4-2.2,5.2c-0.4,1.2-0.6,2.3-0.6,3.4c-0.2,2.8,1,3.8,3.7,3C324.9,311.5,326.3,310.6,327.6,309.5z M328.7,261.5
		c0.7-0.6,1.5-1.1,2.2-1.8c3-3.4,6-6.8,9.2-10.2c-0.3-1.3-1.2-1.2-2.2-1.1c-4.6,0.5-10.3,5.8-11.1,10.3c-0.2,1-0.4,2.1,0.5,3.2
		C327.7,261.8,328.2,261.7,328.7,261.5z"/>
	<path class="st2" d="M362.4,263.5c-0.2,0-0.4-0.3-0.4-0.4c0.1-0.5,0.1-0.8,0.3-1.3c2.5-5.4,5-11,7.4-16.6c0.4-0.5,0.7-1.4,1.5-1.4
		c0.2,0,0.2,0.1,0.3,0.1l0,0.3c-2,4.4-3.9,8.6-6,13c1,0.4,1.1-0.3,1.4-0.6l6.5-7.1c1.2-1.1,2.5-1.9,3.9-2.7c2-1,3.1-0.8,4.6,0.8
		l0.5,0.4c1.7,2.4,4,2.6,6.5,1.7c2.3-0.7,4.3-1.7,6.5-2.8c0.5,0,0.8-0.2,1.1-0.3c0.7,0.6,0.3,0.9,0,1.1c-2.4,1.4-5.1,2.5-7.7,3.1
		c-2.8,0.6-5.3,0.1-7.2-2.3c-1.2-1.8-2.4-1.8-4.1-0.5c-1.6,1.1-3.3,2.3-4.8,3.7c-2.7,3.2-5.3,6.5-7.8,9.7l-2,2.1
		C362.8,263.6,362.5,263.6,362.4,263.5z"/>
	<path class="st2" d="M396,256.4c-3.9,0.1-5.3-4.6-1.2-8.7c1.5-2.1,3.5-3.9,5.9-4.8c0.6-0.2,1.4-0.3,2.1-0.4
		c1.3,0.2,1.9,1.4,1.1,2.5c-0.6,0.7-1.5,1.4-2.2,2.2c-1.9,1.5-4.2,2.7-6.4,3.6c-0.8,0.2-1.4,0.6-1.6,1.5c-0.5,1.8,0.3,3,2.3,3.3
		c1.9,0.1,4.6-0.6,6.3-1.5c2-1,3.2-1.9,5-3.3l6.7-5.2c1.9-1.7,3.4-1,1.6,0.2c-3.4,2.8-5.8,4.6-9.4,7.3c-2.2,1.7-4.7,2.9-7.5,3.4
		C397.8,256.3,396.9,256.4,396,256.4z M400.8,246.2c0.9-0.7,1.8-1.2,2-2.5c-1.2-0.5-2.1,0.4-3,0.8c-1.8,1.2-2.8,2.2-3.7,4.3
		C397.9,248.3,399.4,247.1,400.8,246.2z"/>
	<path class="st2" d="M409.2,253.4c0.2-0.8,0.5-1.7,0.9-2.3c2.5-4.1,6-7.6,10.2-9.8c1.1-0.4,2.3-0.9,3.4-1c1.8-0.2,2.9,1.6,2.3,3.3
		l-1.9,4.7c-0.4,1.2-0.7,2.3,0.4,3.3c1.6,1.3,7.4-1.7,14.4-5.9c2.1-1.3,4.1-2.4,6.4-3.6c1.5-0.8,4.2-1.4,1.6,0
		c-3.9,2.3-8,4.9-12.1,7.1c-4,2.2-7,3.8-9.8,3.6c-1.3-0.2-2.2-1.2-2.2-2.7c-0.1-0.8,0.1-1.6,0.2-2.6c-0.8-0.2-1.2,0.5-1.5,0.8
		c-2.4,2-4.7,4-7.5,5.5c-0.9,0.4-2,1-2.9,1.3C409.9,255.4,409,254.5,409.2,253.4z M425.1,241.9c-0.6-0.9-1.5-0.6-2.3-0.4
		c-5.4,2.3-9.5,6.2-12.2,11.3c-0.1,0.3,0.1,0.6,0.1,1.3C416.3,251.6,423.4,245.6,425.1,241.9z"/>
	<path class="st2" d="M493.1,207.6c0,0.3,0.1,0.8,0,1.1c-0.8,1.2-2.7,2.1-4.9,2.6c0.6-0.7,0.9-1.1,1.3-1.4c0.4-0.4,0.9-0.6,1.2-0.9
		c-0.1-0.8-0.4-0.8-0.9-0.7l-5.1,0.5c-4.9,0.7-9.7,1.5-14.6,2c-1.4,0.3-2.5,0.9-3.3,2.1l-14.5,22.6c-0.7,0.9-1.4,1.6-2,2.5
		c-0.6,0.7-1.1,1.6-1.5,2.4c-3.4,7.6-6.3,15.5-8.8,23.3c-2.5,8-4.9,16.1-7.4,24.1c-0.1,0.5-0.2,0.8-0.6,1.7
		c-0.4-0.4-0.7-0.7-0.7-0.9c0.1-0.8,0.3-1.6,0.5-2.5c3.2-11,6.6-21.8,10.4-32.6c4.9-13.1,11.1-25.6,17.7-37.9l1.2-2.5
		c0.2,0,0-0.2-0.1-0.5c-3.2,0-6.5,0.8-9.7,1.5c-3.3,0.7-6.6,1.2-10.1,2l-9.6,2.5c-3,0.8-6.1,2.1-9.2,3.1c0-1.3,0.7-1.4,1-1.5
		c3.6-1.2,7-2.5,10.4-3.4c8.6-2.4,17.4-4.3,26.3-5.5c1.8-0.2,2.8-1.1,3.8-2.5c1.9-3.1,4-6.1,6.3-8.9c0.8-1.2,2.2-2.2,3.5-3.1
		c0.1-0.2,0.9-0.3,1.1-0.1c0.2,0.3,0.6,0.9,0.5,1.4c-0.2,0.8-0.8,1.7-1.2,2.5l-4.1,7c-0.3,0.5-0.5,1-0.8,1.5
		c0.7,0.7,1.5,0.5,2.3,0.2c4.9-0.5,9.8-1.4,14.9-2.1l3.5-0.4C491,207.1,492.1,206.9,493.1,207.6z M465.2,213.2
		c0.3-0.2,0.4-0.7,0.5-1.2c-1.5-0.3-2.6,0.1-3.2,1.5c-2.4,4.4-4.7,9-7.1,13.5c0,0-0.9,2.2-1.1,2.2c0.2,0.1,0.2,0.3,0.4,0.3
		c1.1-1.7,1-1.4,1.7-2.3L465.2,213.2L465.2,213.2z M467.8,209c1.8-3.1,3.7-6.2,5.4-9.4c0.1-0.2,0.1-0.5,0.1-0.8
		c-2.8,2.1-7.1,7.8-8.5,11.4C466.2,210.6,467.2,210.2,467.8,209z"/>
	<path class="st2" d="M500.8,242.2c0-0.5-0.1-1.3,0.1-1.8c0.1-0.3,0.6-0.5,0.9-0.7l0.6,0.9c0.2,0.1,0,0.2,0.1,0.6
		c0,0.2,0.1,0.8-0.2,1.3c-0.1,0.3-0.4,0.7-0.7,0.9C501.3,243.6,500.7,243.1,500.8,242.2z M506.1,217.5c5.2-17.8,14.4-39,18.8-43.5
		c0.2,0.3,0.4,0.6,0.4,0.8c-0.1,0.5-0.4,0.8-0.7,1.2c-7.2,12.2-12.1,25.3-16.4,38.7c-1.7,5.3-2.9,10.8-4.4,16.1
		c-0.3,0.7,0,1.4-1.1,1.7C502.3,230.7,502.5,229.5,506.1,217.5z"/>
</g>
</svg>
